<svg xmlns="http://www.w3.org/2000/svg" xmlns:xlink="http://www.w3.org/1999/xlink" width="56" height="56" viewBox="0 0 56 56">
  <defs>
    <linearGradient id="linear-gradient" x1="0.5" x2="0.5" y2="1.882" gradientUnits="objectBoundingBox">
      <stop offset="0" stop-color="#fff"/>
      <stop offset="1" stop-color="#504D58"/>
    </linearGradient>
  </defs>
  <g id="Group_10" data-name="Group 10" transform="translate(-806.002 -316)">
    <circle id="Oval" cx="28" cy="28" r="28" transform="translate(806.002 316)" fill="#504D58"/>
    <g id="Group_9" data-name="Group 9" transform="translate(824.002 334)">
      <path id="Fill_9" data-name="Fill 9" d="M6.8,18.952c0-.016,0-.032,0-.049a1.01,1.01,0,0,1,0-.116c.018-.284,0-.57,0-.854v-.9c-.475,0-.93,0-1.384,0a2.421,2.421,0,0,1-2.5-2.507q0-4.058,0-8.115A2.429,2.429,0,0,1,5.426,3.9h.412c0-.293-.012-.564,0-.834a.284.284,0,0,0-.187-.316A1.445,1.445,0,0,1,4.985.882a1.462,1.462,0,0,1,2.8.518,1.486,1.486,0,0,1-.822,1.373c-.059.03-.145.089-.147.138-.014.321-.007.643-.007.974h5.84c0-.291-.009-.569,0-.845a.261.261,0,0,0-.176-.285A1.454,1.454,0,1,1,13.887.212a1.388,1.388,0,0,1,.7,1.3,1.427,1.427,0,0,1-.818,1.259c-.059.031-.144.09-.147.139-.013.32-.006.642-.006.992.222,0,.424-.01.625,0a2.419,2.419,0,0,1,2.294,2.4q.008,4.153,0,8.305a2.426,2.426,0,0,1-2.425,2.413c-.583,0-1.169.041-1.748-.009a2.819,2.819,0,0,0-1.907.54c-.943.641-1.931,1.217-2.9,1.816a.495.495,0,0,1-.751-.424Zm-5.841-6.4a1.388,1.388,0,0,1-.957-1.327C0,10.553,0,9.882.006,9.212a1.452,1.452,0,0,1,1.4-1.42c.17,0,.34,0,.524,0V12.7A6.358,6.358,0,0,1,.963,12.551ZM17.531,7.8a1.938,1.938,0,0,1,1.238.214,1.343,1.343,0,0,1,.661,1.183c-.01.683-.031,1.367.006,2.048a1.424,1.424,0,0,1-1.156,1.375c-.24.04-.488.034-.75.051Z" transform="translate(0 0.038)" fill="url(#linear-gradient)"/>
    </g>
  </g>
</svg>
