<svg xmlns="http://www.w3.org/2000/svg" width="36" height="36" viewBox="0 0 36 36">
  <g id="Group_14" data-name="Group 14" transform="translate(-1520 -785)">
    <circle id="Oval" cx="18" cy="18" r="18" transform="translate(1520 785)" fill="#383838"/>
    <path id="Fill_9" data-name="Fill 9" d="M9.293,15.776a.434.434,0,0,1-.314-.452c0-.3,0-.606,0-.938-.441,0-.836,0-1.232,0-.348,0-.529-.167-.53-.511q-.007-2.7,0-5.4a.493.493,0,0,1,.552-.53c.393,0,.787,0,1.21,0,0-.3,0-.582,0-.86,0-.337.184-.541.475-.545a.479.479,0,0,1,.494.527c.008.287,0,.574,0,.878.4,0,.773,0,1.144,0a.536.536,0,0,1,.615.6q0,2.624,0,5.251a.524.524,0,0,1-.6.589c-.378,0-.755,0-1.166,0,0,.337.014.649,0,.96a.456.456,0,0,1-.462.461A.594.594,0,0,1,9.293,15.776Zm-7.3-3.72a.827.827,0,0,1-.229-.433,1.735,1.735,0,0,1-.008-.444v-.455c-.421,0-.807,0-1.194,0S0,10.571,0,10.172q0-3.38,0-6.761c0-.4.193-.581.6-.583H1.752c0-.28,0-.548,0-.816a.545.545,0,0,1,.487-.6c.289-.007.49.231.494.589,0,.247,0,.5,0,.743a.6.6,0,0,0,.022.089H3.8c.554,0,.683.13.683.685q0,3.294,0,6.588c0,.47-.152.623-.619.625l-1.039,0a.763.763,0,0,0-.09.025c0,.288.009.59,0,.89a.5.5,0,0,1-.468.51A.448.448,0,0,1,1.989,12.056Zm13.71-2.3a.533.533,0,0,1-.476-.585c0-.263,0-.527,0-.831H14.184c-.6,0-.725-.128-.725-.727,0-1.733.012-3.466,0-5.2-.009-.931.085-1.041,1.023-1.007.237.008.475,0,.744,0,0-.3,0-.577,0-.855,0-.337.178-.542.469-.55s.5.2.5.545c0,.272,0,.544,0,.86h.3c.305,0,.61,0,.915,0a.517.517,0,0,1,.545.545q0,2.934,0,5.868a.482.482,0,0,1-.533.516c-.394,0-.789,0-1.223,0,0,.3,0,.561,0,.823a.539.539,0,0,1-.486.593Z" transform="translate(1529.014 795.111)" fill="#fff"/>
  </g>
</svg>
