<svg xmlns="http://www.w3.org/2000/svg" xmlns:xlink="http://www.w3.org/1999/xlink" width="14.653" height="11.553" viewBox="0 0 14.653 11.553">
  <defs>
    <clipPath id="clip-path">
      <path id="Clip_2" data-name="Clip 2" d="M0,0H14.653V11.553H0Z" transform="translate(0 0.042)" fill="none"/>
    </clipPath>
  </defs>
  <g id="Group_3" data-name="Group 3" transform="translate(0 -0.042)">
    <path id="Clip_2-2" data-name="Clip 2" d="M0,0H14.653V11.553H0Z" transform="translate(0 0.042)" fill="none"/>
    <g id="Group_3-2" data-name="Group 3" clip-path="url(#clip-path)">
      <path id="Fill_1" data-name="Fill 1" d="M7.313,11.553h0A17.856,17.856,0,0,1,3.2,11.068,6.4,6.4,0,0,1,.7,9.986,1.544,1.544,0,0,1,0,8.585C.02,8.342.017,8.1.013,7.836c0-.123,0-.248,0-.378A3,3,0,0,0,1.726,8.911a11.122,11.122,0,0,0,3.782.865c.779.046,1.428.068,2.044.068.4,0,.789-.01,1.155-.029a11.267,11.267,0,0,0,4.6-1.085,2.572,2.572,0,0,0,1.327-1.26c0,.166,0,.33.008.489a8.188,8.188,0,0,1-.018,1.025,1.693,1.693,0,0,1-.932,1.192,7.388,7.388,0,0,1-2.526.965A18.527,18.527,0,0,1,7.313,11.553Zm.1-3.1h0c-.325,0-.659-.008-1-.024A14.536,14.536,0,0,1,2.239,7.7,5.272,5.272,0,0,1,.648,6.862,1.514,1.514,0,0,1,0,5.534c.015-.252.011-.507.008-.776,0-.125,0-.254,0-.389a2.982,2.982,0,0,0,1.729,1.46A11.133,11.133,0,0,0,5.5,6.688c.765.047,1.437.07,2.052.07.389,0,.767-.009,1.124-.028A11.353,11.353,0,0,0,13.3,5.647a2.554,2.554,0,0,0,1.345-1.283c0,.164,0,.322,0,.476,0,.338.007.656-.008.973a1.412,1.412,0,0,1-.625,1.041,6,6,0,0,1-2.184,1.029A16.267,16.267,0,0,1,7.414,8.455ZM7.3,5.377A15.892,15.892,0,0,1,2.354,4.65,5.311,5.311,0,0,1,.689,3.805C.627,3.756.563,3.7.5,3.649a1.356,1.356,0,0,1-.492-.971A1.31,1.31,0,0,1,.5,1.729,5.454,5.454,0,0,1,2.8.58,16.194,16.194,0,0,1,7.233,0c.335,0,.681.009,1.028.026A13.4,13.4,0,0,1,12.412.77a8.1,8.1,0,0,1,1.069.525c.154.085.312.173.469.254a.332.332,0,0,1,.057.041l.02.016a1.421,1.421,0,0,1,.612,1.081,1.428,1.428,0,0,1-.621,1.082A6.123,6.123,0,0,1,11.834,4.8,17.021,17.021,0,0,1,7.3,5.377Z" transform="translate(0 0.042)" fill="#fff"/>
    </g>
  </g>
</svg>
