<svg xmlns="http://www.w3.org/2000/svg" width="36" height="36" viewBox="0 0 36 36">
  <g id="Group_10" data-name="Group 10" transform="translate(-73 -30)">
    <circle id="Oval" cx="18" cy="18" r="18" transform="translate(73 30)" fill="#383838"/>
    <g id="diamond-2" transform="translate(82.5 38.5)">
      <path id="Path_2" data-name="Path 2" d="M8.863,18.147l2.481-7.478h4.111L8.943,18.147Zm-2.264,0L.087,10.669H4.2L6.68,18.147ZM5.319,10.669h4.9L7.772,18.06Zm6.5-1.064,1.861-3.721L15.543,9.6Zm-6.3,0L7.772,5.854,10.022,9.6ZM0,9.6,1.861,5.883,3.722,9.6ZM8.71,5.352h4.049l-1.84,3.68Zm-5.927,0H6.833L4.624,9.032ZM10.028,3.1a.531.531,0,0,1,0-.752l.752-.752a.532.532,0,1,1,.751.752l-.751.752a.531.531,0,0,1-.752,0Zm-5.264,0-.752-.752a.532.532,0,0,1,.752-.752l.752.752a.532.532,0,0,1-.752.752ZM7.24,1.631V.532A.532.532,0,1,1,8.3.532v1.1a.532.532,0,0,1-1.064,0Z" transform="translate(0.5 0.026)" fill="#fff"/>
    </g>
  </g>
</svg>
