<svg xmlns="http://www.w3.org/2000/svg" width="50" height="50" viewBox="0 0 50 50">
  <g id="Group_37" data-name="Group 37" transform="translate(-578 -703)">
    <path id="Fill_1" data-name="Fill 1" d="M50,25A25,25,0,1,1,25,0,25,25,0,0,1,50,25" transform="translate(578 703)" fill="#00bcc7"/>
    <path id="key_1_" data-name="key (1)" d="M21,2,19,4m-7.61,7.61a5.5,5.5,0,1,1-7.779,0,5.5,5.5,0,0,1,7.779,0Zm0,0L15.5,7.5m0,0,3,3L22,7,19,4M15.5,7.5,19,4" transform="translate(590.5 716.5)" fill="none" stroke="#fff" stroke-linecap="round" stroke-linejoin="round" stroke-width="2"/>
  </g>
</svg>
