<svg id="Hinterrhein" xmlns="http://www.w3.org/2000/svg" xmlns:xlink="http://www.w3.org/1999/xlink" width="1680" height="263" viewBox="0 0 1680 263">
  <defs>
    <clipPath id="clip-path">
      <rect id="Mask" width="1680" height="263" rx="10" fill="#687385"/>
    </clipPath>
  </defs>
  <rect id="Mask-2" data-name="Mask" width="1680" height="263" rx="10" fill="#687385"/>
  <g id="Hinterrhein-2" data-name="Hinterrhein" clip-path="url(#clip-path)">
    <g id="Hinterrhein-3" data-name="Hinterrhein" transform="translate(0 -30)" opacity="0.86">
      <ellipse id="Shape" cx="31.368" cy="30.955" rx="31.368" ry="30.955" transform="translate(1493.285 60.26)" fill="none" stroke="#939eb0" stroke-linejoin="round" stroke-miterlimit="10" stroke-width="30"/>
      <path id="Shape-2" data-name="Shape" d="M164.536,34.346A77.179,77.179,0,0,1,181.6,82.508V138.68ZM90.8,0a97.226,97.226,0,0,1,47.5,12.177L0,82.508C0,36.938,40.651,0,90.8,0Z" transform="translate(1328.19 719.815)" fill="none" stroke="#f6ae9f" stroke-linejoin="round" stroke-miterlimit="10" stroke-width="30"/>
      <path id="Shape-3" data-name="Shape" d="M66.864,70.165H97.033c20.266,0,36.694-15.707,36.694-35.083S117.3,0,97.033,0H36.694C16.428,0,0,15.707,0,35.083" transform="translate(1478.427 160.968)" fill="none" stroke="#eaeaea" stroke-linejoin="round" stroke-miterlimit="10" stroke-width="30"/>
      <path id="Shape-4" data-name="Shape" d="M0,56.958A56.873,56.873,0,0,1,56.786,0H156.84" transform="translate(1510.62 934.438)" fill="none" stroke="#cfcfaf" stroke-linejoin="round" stroke-miterlimit="10" stroke-width="30"/>
      <path id="Shape-5" data-name="Shape" d="M.413,0V81.722" transform="translate(1587.39 260.85)" fill="none" stroke="#eaeaea" stroke-linejoin="round" stroke-miterlimit="10" stroke-width="30"/>
      <path id="Shape-6" data-name="Shape" d="M0,90.8A97.223,97.223,0,0,1,12.177,43.3L82.508,181.6C36.938,181.6,0,140.951,0,90.8ZM82.508,0H138.68L34.346,17.066A77.187,77.187,0,0,1,82.508,0Z" transform="translate(956.726 0)" fill="none" stroke="#939eb0" stroke-linejoin="round" stroke-miterlimit="10" stroke-width="30"/>
      <path id="Shape-7" data-name="Shape" d="M35.908,0H33.32a33.432,33.432,0,0,0,0,66.864h76.992a33.432,33.432,0,0,0,0-66.864h-2.588" transform="translate(1231.61 924.533)" fill="none" stroke="#05203d" stroke-linejoin="round" stroke-miterlimit="10" stroke-width="30"/>
      <path id="Shape-8" data-name="Shape" d="M0,38.8a38.8,38.8,0,0,1,77.595,0" transform="translate(1521.352 430.898)" fill="none" stroke="#cfcfaf" stroke-linejoin="round" stroke-miterlimit="10" stroke-width="30"/>
      <path id="Shape-9" data-name="Shape" d="M0,34.257A34.053,34.053,0,0,1,33.844,0,34.053,34.053,0,0,1,67.689,34.257,34.053,34.053,0,0,1,33.844,68.514,34.053,34.053,0,0,1,0,34.257Z" transform="translate(1612.567 499.825)" fill="none" stroke="#f6ae9f" stroke-linejoin="round" stroke-miterlimit="10" stroke-width="30"/>
      <path id="Shape-10" data-name="Shape" d="M61.911,0A31.164,31.164,0,0,1,30.955,31.368,31.164,31.164,0,0,1,0,0" transform="translate(4.127 146.935)" fill="none" stroke="#939eb0" stroke-linejoin="round" stroke-miterlimit="10" stroke-width="30"/>
      <path id="Shape-11" data-name="Shape" d="M38.8,77.595A38.8,38.8,0,0,1,38.8,0" transform="translate(936.915 917.103)" fill="none" stroke="#89c7aa" stroke-linejoin="round" stroke-miterlimit="10" stroke-width="30"/>
      <path id="Shape-12" data-name="Shape" d="M36.786,64.387A32.377,32.377,0,0,0,69.34,32.194,32.377,32.377,0,0,0,36.786,0H0" transform="translate(1269.581 123.821)" fill="none" stroke="#eaeaea" stroke-linejoin="round" stroke-miterlimit="10" stroke-width="30"/>
      <path id="Shape-13" data-name="Shape" d="M249.294,0H65.254A65.233,65.233,0,0,0,0,65.213" transform="translate(23.939 8.255)" fill="none" stroke="#05203d" stroke-linejoin="round" stroke-miterlimit="10" stroke-width="30"/>
      <path id="Shape-14" data-name="Shape" d="M89.151,170.048V44.51A44.576,44.576,0,0,0,0,44.51V63.939" transform="translate(1349.653 824.65)" fill="none" stroke="#89c7aa" stroke-linejoin="round" stroke-miterlimit="10" stroke-width="30"/>
      <ellipse id="Shape-15" data-name="Shape" cx="22.288" cy="21.875" rx="22.288" ry="21.875" transform="translate(4.953 705.782)" fill="none" stroke="#cfcfaf" stroke-linejoin="round" stroke-miterlimit="10" stroke-width="30"/>
      <path id="Shape-16" data-name="Shape" d="M77.595,152.713c42.854,0,77.595-34.186,77.595-76.356S120.449,0,77.595,0,0,34.186,0,76.356" transform="translate(92.453 182.43)" fill="none" stroke="#eaeaea" stroke-linejoin="round" stroke-miterlimit="10" stroke-width="30"/>
      <path id="Shape-17" data-name="Shape" d="M30.955,61.911A30.955,30.955,0,1,0,0,30.955V61.911" transform="translate(66.038 51.179)" fill="none" stroke="#eaeaea" stroke-linejoin="round" stroke-miterlimit="10" stroke-width="30"/>
      <path id="Shape-18" data-name="Shape" d="M71.3,35.908A35.653,35.653,0,1,1,35.652,0h70.008" transform="translate(160.968 51.179)" fill="none" stroke="#939eb0" stroke-linejoin="round" stroke-miterlimit="10" stroke-width="30"/>
      <path id="Shape-19" data-name="Shape" d="M0,73.055V24.89a24.765,24.765,0,1,1,49.529,0v96.329a24.765,24.765,0,1,1-49.529,0V109.582" transform="translate(711.56 8.255)" fill="none" stroke="#eaeaea" stroke-linejoin="round" stroke-miterlimit="10" stroke-width="30"/>
      <path id="Shape-20" data-name="Shape" d="M0,0V125.331a68.1,68.1,0,0,0,136.2,0V95.72" transform="translate(665.333 15.684)" fill="none" stroke="#00bcc7" stroke-linejoin="round" stroke-miterlimit="10" stroke-width="30"/>
      <path id="Shape-21" data-name="Shape" d="M0,0H148.568c56.54,0,102.376,46.013,102.376,102.772S205.108,205.543,148.568,205.543h-44.7" transform="translate(1150.713 51.179)" fill="none" stroke="#00bcc7" stroke-linejoin="round" stroke-miterlimit="10" stroke-width="30"/>
      <path id="Shape-22" data-name="Shape" d="M94.93,0V67.7c0,29.172-23.869,52.821-53.317,52.821H0" transform="translate(1454.488 260.85)" fill="none" stroke="#05203d" stroke-linejoin="round" stroke-miterlimit="10" stroke-width="30"/>
      <path id="Shape-23" data-name="Shape" d="M0,0V45.4a59.437,59.437,0,0,0,59.434,59.44" transform="translate(523.352 302.124)" fill="none" stroke="#89c7aa" stroke-linejoin="round" stroke-miterlimit="10" stroke-width="30"/>
      <path id="Shape-24" data-name="Shape" d="M0,155.189V84.133C0,43.219,32.062,8.946,75.118,0" transform="translate(431.724 468.045)" fill="none" stroke="#f6ae9f" stroke-linejoin="round" stroke-miterlimit="10" stroke-width="30"/>
      <path id="Shape-25" data-name="Shape" d="M0,0H86.931c50.055,0,91.984,39.108,102.928,91.628" transform="translate(1251.834 367.749)" fill="none" stroke="#05203d" stroke-miterlimit="10" stroke-width="30"/>
      <path id="Shape-26" data-name="Shape" d="M0,39.045a39.21,39.21,0,0,1,78.42,0v28.4a39.21,39.21,0,0,1-78.42,0Z" transform="translate(1429.724 230.308)" fill="none" stroke="#00bcc7" stroke-linejoin="round" stroke-miterlimit="10" stroke-width="30"/>
      <path id="Shape-27" data-name="Shape" d="M58.608,224.529V58.772A58.691,58.691,0,0,0,0,0" transform="translate(558.021 83.373)" fill="none" stroke="#eaeaea" stroke-linejoin="round" stroke-miterlimit="10" stroke-width="30"/>
      <circle id="Shape-28" data-name="Shape" cx="26.415" cy="26.415" r="26.415" transform="translate(1144.935 156.015)" fill="none" stroke="#00bcc7" stroke-linejoin="round" stroke-miterlimit="10" stroke-width="30"/>
      <path id="Shape-29" data-name="Shape" d="M75.944,149.411c41.94,0,75.944-33.447,75.944-74.706S117.884,0,75.944,0,0,33.447,0,74.706" transform="translate(1095.406 107.312)" fill="none" stroke="#eaeaea" stroke-linejoin="round" stroke-miterlimit="10" stroke-width="30"/>
      <path id="Shape-30" data-name="Shape" d="M30.955,0A30.955,30.955,0,1,0,61.911,30.955V0" transform="translate(1012.033 59.434)" fill="none" stroke="#05203d" stroke-linejoin="round" stroke-miterlimit="10" stroke-width="30"/>
      <path id="Shape-31" data-name="Shape" d="M35.908,73.268A35.6,35.6,0,1,0,71.816,108.86V0" transform="translate(884.91 601.772)" fill="none" stroke="#cfcfaf" stroke-linejoin="round" stroke-miterlimit="10" stroke-width="30"/>
      <path id="Shape-32" data-name="Shape" d="M75.8,32.606a32.265,32.265,0,1,0,64.526,0A32.433,32.433,0,0,0,108.071,0H0" transform="translate(704.956 884.91)" fill="none" stroke="#f6ae9f" stroke-linejoin="round" stroke-miterlimit="10" stroke-width="30"/>
      <path id="Shape-33" data-name="Shape" d="M42.512,84.1c23.479,0,42.512-18.827,42.512-42.047A42.284,42.284,0,0,0,42.512,0,42.284,42.284,0,0,0,0,42.053V213.8" transform="translate(4.127 784.202)" fill="none" stroke="#89c7aa" stroke-linejoin="round" stroke-miterlimit="10" stroke-width="30"/>
      <path id="Shape-34" data-name="Shape" d="M30.371,0h82.066a30.543,30.543,0,0,1,0,61.085H30.371A30.543,30.543,0,0,1,30.371,0Z" transform="translate(614.979 930.311)" fill="none" stroke="#cfcfaf" stroke-linejoin="round" stroke-miterlimit="10" stroke-width="30"/>
      <path id="Shape-35" data-name="Shape" d="M148.586,0A74.293,74.293,0,0,1,74.293,74.293,74.293,74.293,0,0,1,0,0" transform="translate(344.223 220.402)" fill="none" stroke="#eaeaea" stroke-linejoin="round" stroke-miterlimit="10" stroke-width="30"/>
      <path id="Shape-36" data-name="Shape" d="M64.387,123V32.2A32.194,32.194,0,1,0,0,32.2V46.25" transform="translate(492.809 134.553)" fill="none" stroke="#05203d" stroke-linejoin="round" stroke-miterlimit="10" stroke-width="30"/>
      <ellipse id="Shape-37" data-name="Shape" cx="22.288" cy="21.875" rx="22.288" ry="21.875" transform="translate(344.223 332.667)" fill="none" stroke="#05203d" stroke-linejoin="round" stroke-miterlimit="10" stroke-width="30"/>
      <path id="Shape-38" data-name="Shape" d="M0,123.182V32.008a32.194,32.194,0,0,1,64.387,0v91.174a32.194,32.194,0,0,1-64.387,0Z" transform="translate(385.497 83.373)" fill="none" stroke="#939eb0" stroke-linejoin="round" stroke-miterlimit="10" stroke-width="30"/>
      <path id="Shape-39" data-name="Shape" d="M156.015,0h-72.7A83.343,83.343,0,0,0,0,83.373" transform="translate(966.632 257.548)" fill="none" stroke="#eaeaea" stroke-linejoin="round" stroke-miterlimit="10" stroke-width="30"/>
      <path id="Shape-40" data-name="Shape" d="M30.955,61.506A30.754,30.754,0,1,0,0,30.753v200.38" transform="translate(138.68 230.308)" fill="none" stroke="#05203d" stroke-linejoin="round" stroke-miterlimit="10" stroke-width="30"/>
      <path id="Shape-41" data-name="Shape" d="M32.606,0A32.4,32.4,0,0,0,0,32.194,32.4,32.4,0,0,0,32.606,64.387,32.4,32.4,0,0,0,65.213,32.194V0" transform="translate(1162.27 417.691)" fill="none" stroke="#f6ae9f" stroke-linejoin="round" stroke-miterlimit="10" stroke-width="30"/>
      <path id="Shape-42" data-name="Shape" d="M0,89.774c0,46.158,37.884,83.576,84.611,83.576s84.611-37.418,84.611-83.576V0" transform="translate(1394.228 480.427)" fill="none" stroke="#89c7aa" stroke-linejoin="round" stroke-miterlimit="10" stroke-width="30"/>
      <path id="Shape-43" data-name="Shape" d="M47.569,86.675H43.362A43.337,43.337,0,1,1,43.362,0H175.389a43.337,43.337,0,1,1,0,86.675h-1.294" transform="translate(1302.6 522.526)" fill="none" stroke="#05203d" stroke-linejoin="round" stroke-miterlimit="10" stroke-width="30"/>
      <path id="Shape-44" data-name="Shape" d="M0,0H53.269a64.58,64.58,0,0,1,64.774,64.387" transform="translate(1269.581 417.691)" fill="none" stroke="#89c7aa" stroke-linejoin="round" stroke-miterlimit="10" stroke-width="30"/>
      <ellipse id="Shape-45" data-name="Shape" cx="31.368" cy="30.955" rx="31.368" ry="30.955" transform="translate(685.97 681.017)" fill="none" stroke="#05203d" stroke-linejoin="round" stroke-miterlimit="10" stroke-width="30"/>
      <path id="Shape-46" data-name="Shape" d="M2.81,57.387c-11.51,43.027,13.387,87.092,55.6,98.427s85.764-14.36,97.272-57.386S142.3,11.335,100.081,0" transform="translate(638.093 636.442)" fill="none" stroke="#cfcfaf" stroke-linejoin="round" stroke-miterlimit="10" stroke-width="30"/>
      <path id="Shape-47" data-name="Shape" d="M206.316,108.746H53.389C23.917,108.73.014,84.377,0,54.347S23.865-.015,53.336,0s53.376,24.368,53.388,54.4H56.933" transform="translate(491.754 527.367)" fill="none" stroke="#05203d" stroke-miterlimit="10" stroke-width="30"/>
      <path id="Shape-48" data-name="Shape" d="M.413,0V146.109" transform="translate(694.225 459.79)" fill="none" stroke="#89c7aa" stroke-linejoin="round" stroke-miterlimit="10" stroke-width="30"/>
      <path id="Shape-49" data-name="Shape" d="M23.955,47.052A23.743,23.743,0,0,1,0,23.526,23.743,23.743,0,0,1,23.955,0H49.529" transform="translate(389.624 870.877)" fill="none" stroke="#cfcfaf" stroke-linejoin="round" stroke-miterlimit="10" stroke-width="30"/>
      <ellipse id="Shape-50" data-name="Shape" cx="34.257" cy="33.844" rx="34.257" ry="33.844" transform="translate(236.086 885.735)" fill="none" stroke="#f6ae9f" stroke-linejoin="round" stroke-miterlimit="10" stroke-width="30"/>
      <path id="Shape-51" data-name="Shape" d="M149.411,75.944C149.411,34,115.964,0,74.706,0S0,34,0,75.944s33.447,75.944,74.706,75.944" transform="translate(193.161 842.811)" fill="none" stroke="#05203d" stroke-linejoin="round" stroke-miterlimit="10" stroke-width="30"/>
      <path id="Shape-52" data-name="Shape" d="M69.34,72.642h31.29c21.015,0,38.05-16.26,38.05-36.321S121.644,0,100.63,0H38.05C17.036,0,0,16.26,0,36.321" transform="translate(400.356 798.235)" fill="none" stroke="#05203d" stroke-linejoin="round" stroke-miterlimit="10" stroke-width="30"/>
      <path id="Shape-53" data-name="Shape" d="M0,69.34A69.192,69.192,0,0,1,69.04,0H190.685" transform="translate(343.398 749.532)" fill="none" stroke="#05203d" stroke-linejoin="round" stroke-miterlimit="10" stroke-width="30"/>
      <path id="Shape-54" data-name="Shape" d="M.413,0V69.34" transform="translate(303.775 749.532)" fill="none" stroke="#f6ae9f" stroke-linejoin="round" stroke-miterlimit="10" stroke-width="30"/>
      <path id="Shape-55" data-name="Shape" d="M.413,0V60.26" transform="translate(648.824 542.337)" fill="none" stroke="#f6ae9f" stroke-linejoin="round" stroke-miterlimit="10" stroke-width="30"/>
      <path id="Shape-56" data-name="Shape" d="M67.759,34.257A34.068,34.068,0,0,1,33.88,68.514,34.068,34.068,0,0,1,0,34.257,34.068,34.068,0,0,1,33.88,0H142.807" transform="translate(676.89 337.62)" fill="none" stroke="#f6ae9f" stroke-linejoin="round" stroke-miterlimit="10" stroke-width="30"/>
      <path id="Shape-57" data-name="Shape" d="M0,73.055V24.89a24.765,24.765,0,1,1,49.529,0v96.329a24.765,24.765,0,1,1-49.529,0V109.582" transform="translate(863.447 372.289)" fill="none" stroke="#cfcfaf" stroke-linejoin="round" stroke-miterlimit="10" stroke-width="30"/>
      <path id="Shape-58" data-name="Shape" d="M0,0V125.331a68.1,68.1,0,0,0,136.2,0V95.72" transform="translate(820.523 372.289)" fill="none" stroke="#89c7aa" stroke-linejoin="round" stroke-miterlimit="10" stroke-width="30"/>
      <path id="Shape-59" data-name="Shape" d="M82.548,0H46.8A46.926,46.926,0,0,0,0,47.052" transform="translate(748.706 260.85)" fill="none" stroke="#05203d" stroke-linejoin="round" stroke-miterlimit="10" stroke-width="30"/>
      <path id="Shape-60" data-name="Shape" d="M.413,0V112.265" transform="translate(862.622 225.355)" fill="none" stroke="#eaeaea" stroke-linejoin="round" stroke-miterlimit="10" stroke-width="30"/>
      <path id="Shape-61" data-name="Shape" d="M111.439,25.712V36.6a27.967,27.967,0,0,1-55.933,0V27.581A27.753,27.753,0,0,0,0,27.581V38.675" transform="translate(956.726 383.021)" fill="none" stroke="#89c7aa" stroke-linejoin="round" stroke-miterlimit="10" stroke-width="30"/>
      <path id="Shape-62" data-name="Shape" d="M72.411,145.284A72.642,72.642,0,0,1,72.411,0H138.68" transform="translate(0 499.413)" fill="none" stroke="#cfcfaf" stroke-linejoin="round" stroke-miterlimit="10" stroke-width="30"/>
      <path id="Shape-63" data-name="Shape" d="M30.955,18.228A30.922,30.922,0,1,0,61.911,49.149V0" transform="translate(152.713 616.63)" fill="none" stroke="#05203d" stroke-linejoin="round" stroke-miterlimit="10" stroke-width="30"/>
      <path id="Shape-64" data-name="Shape" d="M59.022,64.387H32.388A32.194,32.194,0,1,1,32.388,0H85.655a32.291,32.291,0,0,1,32.388,32.194v2.86A29.422,29.422,0,0,1,88.532,64.387" transform="translate(47.052 539.861)" fill="none" stroke="#f6ae9f" stroke-linejoin="round" stroke-miterlimit="10" stroke-width="30"/>
      <path id="Shape-65" data-name="Shape" d="M0,106.486V57.729C0,29.655,22.2,6.138,52,0" transform="translate(218.751 464.743)" fill="none" stroke="#cfcfaf" stroke-linejoin="round" stroke-miterlimit="10" stroke-width="30"/>
      <path id="Shape-66" data-name="Shape" d="M.413,117.218V0" transform="translate(183.256 382.195)" fill="none" stroke="#89c7aa" stroke-linejoin="round" stroke-miterlimit="10" stroke-width="30"/>
      <path id="Shape-67" data-name="Shape" d="M0,39.523a39.623,39.623,0,0,1,79.246,0v92.653a39.623,39.623,0,0,1-79.246,0Z" transform="translate(263.327 515.922)" fill="none" stroke="#89c7aa" stroke-linejoin="round" stroke-miterlimit="10" stroke-width="30"/>
      <path id="Shape-68" data-name="Shape" d="M0,32.554A32.376,32.376,0,0,1,32.194,0,32.376,32.376,0,0,1,64.387,32.554V69.34" transform="translate(1012.033 702.48)" fill="none" stroke="#f6ae9f" stroke-linejoin="round" stroke-miterlimit="10" stroke-width="30"/>
      <ellipse id="Shape-69" data-name="Shape" cx="34.257" cy="33.844" rx="34.257" ry="33.844" transform="translate(1110.265 649.649)" fill="none" stroke="#f6ae9f" stroke-linejoin="round" stroke-miterlimit="10" stroke-width="30"/>
      <path id="Shape-70" data-name="Shape" d="M61.691,30.955A30.845,30.845,0,1,1,30.845,0H146.109" transform="translate(1016.16 802.362)" fill="none" stroke="#cfcfaf" stroke-linejoin="round" stroke-miterlimit="10" stroke-width="30"/>
      <path id="Shape-71" data-name="Shape" d="M0,0H112.4a77.595,77.595,0,0,1,0,155.189H78.588" transform="translate(1039.274 605.074)" fill="none" stroke="#05203d" stroke-linejoin="round" stroke-miterlimit="10" stroke-width="30"/>
      <path id="Shape-72" data-name="Shape" d="M0,0H35.616a65.23,65.23,0,0,1,65.092,65.374v66.7" transform="translate(1202.718 802.362)" fill="none" stroke="#cfcfaf" stroke-linejoin="round" stroke-miterlimit="10" stroke-width="30"/>
      <ellipse id="Shape-73" data-name="Shape" cx="22.288" cy="21.875" rx="22.288" ry="21.875" transform="translate(1215.1 846.112)" fill="none" stroke="#05203d" stroke-linejoin="round" stroke-miterlimit="10" stroke-width="30"/>
      <g id="Shape-74" data-name="Shape" transform="translate(1116.043 893.165)">
        <path id="Shape-75" data-name="Shape" d="M.471,0,.529,24.764" transform="translate(0 48.703)" fill="none" stroke="#89c7aa" stroke-linejoin="round" stroke-miterlimit="10" stroke-width="30"/>
        <path id="Shape-76" data-name="Shape" d="M.471,0,.529,24.764" fill="none" stroke="#cfcfaf" stroke-linejoin="round" stroke-miterlimit="10" stroke-width="30"/>
      </g>
      <path id="Shape-77" data-name="Shape" d="M.389,0,.436,24.764" transform="translate(961.679 851.065)" fill="none" stroke="#89c7aa" stroke-linejoin="round" stroke-miterlimit="10" stroke-width="30"/>
      <path id="Shape-78" data-name="Shape" d="M.389,0,.436,24.764" transform="translate(961.679 802.362)" fill="none" stroke="#f6ae9f" stroke-linejoin="round" stroke-miterlimit="10" stroke-width="30"/>
      <path id="Shape-79" data-name="Shape" d="M.389,0,.436,24.764" transform="translate(912.151 802.362)" fill="none" stroke="#cfcfaf" stroke-linejoin="round" stroke-miterlimit="10" stroke-width="30"/>
      <path id="Shape-80" data-name="Shape" d="M.389,0,.436,24.764" transform="translate(568.753 737.15)" fill="none" stroke="#05203d" stroke-linejoin="round" stroke-miterlimit="10" stroke-width="30"/>
      <path id="Shape-81" data-name="Shape" d="M.389,0,.436,24.764" transform="translate(203.067 754.485)" fill="none" stroke="#f6ae9f" stroke-linejoin="round" stroke-miterlimit="10" stroke-width="30"/>
      <path id="Shape-82" data-name="Shape" d="M.389,0,.436,24.764" transform="translate(314.506 420.993)" fill="none" stroke="#f6ae9f" stroke-linejoin="round" stroke-miterlimit="10" stroke-width="30"/>
      <path id="Shape-83" data-name="Shape" d="M.389,0,.436,24.764" transform="translate(274.058 359.907)" fill="none" stroke="#cfcfaf" stroke-linejoin="round" stroke-miterlimit="10" stroke-width="30"/>
      <path id="Shape-84" data-name="Shape" d="M.389,0,.436,24.764" transform="translate(91.628 294.695)" fill="none" stroke="#89c7aa" stroke-linejoin="round" stroke-miterlimit="10" stroke-width="30"/>
      <path id="Shape-85" data-name="Shape" d="M.389,0,.436,24.764" transform="translate(615.805 393.752)" fill="none" stroke="#89c7aa" stroke-linejoin="round" stroke-miterlimit="10" stroke-width="30"/>
      <path id="Shape-86" data-name="Shape" d="M.389,0,.436,24.764" transform="translate(861.797 132.076)" fill="none" stroke="#00bcc7" stroke-linejoin="round" stroke-miterlimit="10" stroke-width="30"/>
      <path id="Shape-87" data-name="Shape" d="M.389,0,.436,24.764" transform="translate(861.797 85.024)" fill="none" stroke="#05203d" stroke-linejoin="round" stroke-miterlimit="10" stroke-width="30"/>
      <path id="Shape-88" data-name="Shape" d="M.389,0,.436,24.764" transform="translate(1133.378 525.828)" fill="none" stroke="#05203d" stroke-linejoin="round" stroke-miterlimit="10" stroke-width="30"/>
      <path id="Shape-89" data-name="Shape" d="M.389,0,.436,24.764" transform="translate(1191.987 525.828)" fill="none" stroke="#05203d" stroke-linejoin="round" stroke-miterlimit="10" stroke-width="30"/>
      <path id="Shape-90" data-name="Shape" d="M.389,0,.436,24.764" transform="translate(1250.596 525.828)" fill="none" stroke="#05203d" stroke-linejoin="round" stroke-miterlimit="10" stroke-width="30"/>
      <path id="Shape-91" data-name="Shape" d="M.389,0,.436,24.764" transform="translate(1579.96 832.905)" fill="none" stroke="#f6ae9f" stroke-linejoin="round" stroke-miterlimit="10" stroke-width="30"/>
    </g>
  </g>
</svg>
