<svg xmlns="http://www.w3.org/2000/svg" width="22.027" height="21.987" viewBox="0 0 22.027 21.987">
  <g id="Group_3" data-name="Group 3" transform="translate(1.021 1)">
    <path id="Fill_1" data-name="Fill 1" d="M19.52,12.219l-1.532-2.135-.048-.136,1.722-2.38a1.719,1.719,0,0,0-1.116-2.7l-2.96-.492-.147-.913-.32-1.992-.006-.038A1.72,1.72,0,0,0,13.441,0h-.1A1.7,1.7,0,0,0,12.626.2L12.612.2l-.046.026c-.048.028-.1.057-.142.09L9.993,2.063,7.562.318C7.516.285,7.468.256,7.419.228L7.374.2,7.36.2A1.7,1.7,0,0,0,6.649,0h-.1A1.72,1.72,0,0,0,4.872,1.437l-.006.038-.32,1.992L4.4,4.38l-2.96.492a1.719,1.719,0,0,0-1.116,2.7l1.722,2.38L2,10.084.461,12.225l-.143.2a1.717,1.717,0,0,0,.01,2,1.7,1.7,0,0,0,1.109.686l.059.009,2.887.48.479,2.883.01.063a1.725,1.725,0,0,0,.078.3l.005.016.01.025a1.7,1.7,0,0,0,.935.96,1.74,1.74,0,0,0,.252.083h0a1.718,1.718,0,0,0,.224.04l.033,0,.052,0,.052,0H6.57l.076,0h0a1.7,1.7,0,0,0,.725-.2h0c.029-.016.058-.033.087-.05l.025-.016.049-.033.029-.019.116-.084,2.309-1.657L12.3,19.581l.116.084.029.019.049.033.025.016c.029.018.058.034.087.05h0a1.7,1.7,0,0,0,.725.2h0l.076,0h.056l.052,0,.052,0,.033,0a1.717,1.717,0,0,0,.224-.04h0a1.734,1.734,0,0,0,.252-.083,1.7,1.7,0,0,0,.935-.961l.01-.024.006-.017a1.722,1.722,0,0,0,.078-.3l.01-.063L15.6,15.6l2.887-.48.059-.009a1.7,1.7,0,0,0,1.109-.686,1.738,1.738,0,0,0,.193-.343,1.72,1.72,0,0,0-.183-1.661Z" transform="translate(0 0)" fill="#00bcc7" stroke="#fff" stroke-miterlimit="10" stroke-width="2"/>
    <g id="Group_3-2" data-name="Group 3" transform="translate(3.993 2.494)">
      <path id="Fill_1-2" data-name="Fill 1" d="M4.159,10.1a.79.79,0,0,1-.56-.232L.232,6.5a.792.792,0,0,1,1.12-1.12L4.159,8.188,12.114.232a.792.792,0,0,1,1.12,1.12L4.719,9.868a.79.79,0,0,1-.56.232" transform="translate(0.607 0.006)" fill="#fff"/>
    </g>
  </g>
</svg>
