<?xml version="1.0" encoding="utf-8"?>
<!-- Generator: Adobe Illustrator 24.3.0, SVG Export Plug-In . SVG Version: 6.00 Build 0)  -->
<svg version="1.1" id="Layer_1" xmlns="http://www.w3.org/2000/svg" xmlns:xlink="http://www.w3.org/1999/xlink" x="0px" y="0px"
	 viewBox="0 0 24 24" style="enable-background:new 0 0 24 24;" xml:space="preserve">
<style type="text/css">
	.st0{fill:#878F9D;}
</style>
<g id="Symbols">
	<g id="app_settings">
		<path id="Shape" class="st0" d="M22.7,9.4l-1.9-0.2c-0.2-0.5-0.3-0.9-0.6-1.4l1.2-1.5c0.5-0.6,0.4-1.5-0.1-2l-1.6-1.6
			c-0.5-0.5-1.4-0.6-2-0.1l-1.5,1.2c-0.4-0.2-0.9-0.4-1.4-0.6l-0.2-1.9C14.5,0.6,13.9,0,13.1,0h-2.2c-0.8,0-1.4,0.6-1.5,1.3L9.2,3.2
			C8.7,3.4,8.2,3.5,7.8,3.8L6.3,2.6c-0.6-0.5-1.5-0.4-2,0.1L2.7,4.3c-0.5,0.5-0.6,1.4-0.1,2l1.2,1.5C3.5,8.2,3.4,8.7,3.2,9.2
			L1.3,9.4C0.6,9.5,0,10.1,0,10.9v2.2c0,0.8,0.6,1.4,1.3,1.5l1.9,0.2c0.2,0.5,0.3,0.9,0.6,1.4l-1.2,1.5c-0.5,0.6-0.4,1.5,0.1,2
			l1.6,1.6c0.5,0.5,1.4,0.6,2,0.1l1.5-1.2c0.4,0.2,0.9,0.4,1.4,0.6l0.2,1.9c0.1,0.8,0.7,1.3,1.5,1.3h2.2c0.8,0,1.4-0.6,1.5-1.3
			l0.2-1.9c0.5-0.2,0.9-0.3,1.4-0.6l1.5,1.2c0.6,0.5,1.5,0.4,2-0.1l1.6-1.6c0.5-0.5,0.6-1.4,0.1-2l-1.2-1.5c0.2-0.4,0.4-0.9,0.6-1.4
			l1.9-0.2c0.8-0.1,1.3-0.7,1.3-1.5v-2.2C24,10.1,23.4,9.5,22.7,9.4L22.7,9.4z M12,17c-2.8,0-5-2.2-5-5s2.2-5,5-5s5,2.2,5,5
			S14.8,17,12,17z"/>
	</g>
</g>
</svg>
