<?xml version="1.0" encoding="utf-8"?>
<!-- Generator: Adobe Illustrator 24.3.0, SVG Export Plug-In . SVG Version: 6.00 Build 0)  -->
<svg version="1.1" id="Layer_1" xmlns="http://www.w3.org/2000/svg" xmlns:xlink="http://www.w3.org/1999/xlink" x="0px" y="0px"
	 viewBox="0 0 24 24" style="enable-background:new 0 0 24 24;" xml:space="preserve">
<style type="text/css">
	.st0{fill:#CCCDCD;}
	.st1{fill:#878F9D;}
</style>
<g id="Symbols">
	<g id="coupon">
		<g id="_x33_702821" transform="translate(6.000000, 6.000000)">
			<g id="Group" transform="translate(6.000000, 4.968750)">
				<path id="Path" class="st0" d="M-4-2c-1.1,0-2-0.9-2-2s0.9-2,2-2s2,0.9,2,2S-2.9-2-4-2z"/>
				<path id="Path_1_" class="st0" d="M2,4C0.9,4,0,3.1,0,2s0.9-2,2-2s2,0.9,2,2S3.1,4,2,4z"/>
				<path id="Path_2_" class="st0" d="M-4,4C-4.2,4-4.4,4-4.6,3.8c-0.4-0.3-0.5-1-0.2-1.4l6-8c0.3-0.4,1-0.5,1.4-0.2s0.5,1,0.2,1.4
					l-6,8C-3.4,3.9-3.7,4-4,4z"/>
			</g>
			<path id="Shape" class="st1" d="M-6,12v3c0,1.7,1.3,3,3,3H9.5h0c1.9,0,3.5-1.6,3.5-3.5V0h4c0.6,0,1-0.4,1-1v-1.5
				c0-1.6-1.1-2.9-2.5-3.3C15.3-5.9,15.2-6,15-6H-1c-1.7,0-3,1.3-3,3v14h-1C-5.6,11-6,11.5-6,12L-6,12z M7,11h-9V-3c0-0.6,0.4-1,1-1
				h12.4C11.1-3.5,11-3,11-2.5V-1v15.5c0,0.8-0.7,1.5-1.5,1.5C8.7,16,8,15.3,8,14.5V12C8,11.5,7.6,11,7,11L7,11z"/>
		</g>
	</g>
</g>
</svg>
