<?xml version="1.0" encoding="utf-8"?>
<!-- Generator: Adobe Illustrator 24.3.0, SVG Export Plug-In . SVG Version: 6.00 Build 0)  -->
<svg version="1.1" id="Layer_1" xmlns="http://www.w3.org/2000/svg" xmlns:xlink="http://www.w3.org/1999/xlink" x="0px" y="0px"
	 viewBox="0 0 24 24" style="enable-background:new 0 0 24 24;" xml:space="preserve">
<style type="text/css">
	.st0{fill:#878F9D;}
	.st1{fill:#CCCDCD;}
</style>
<g id="Symbols">
	<g id="history">
		<g id="_x33_602665" transform="translate(10.000000, 7.000000)">
			<path id="Path" class="st0" d="M10.2,15h-1v-3.3c0-1.6-0.7-3.2-2-4.3L5.5,5.9C5.2,5.7,5.1,5.4,5.1,5s0.2-0.7,0.4-0.9l1.7-1.5
				c1.2-1.1,2-2.6,2-4.3V-5h1c0.6,0,1-0.4,1-1s-0.5-1-1-1H-6.2c-0.6,0-1,0.4-1,1s0.5,1,1,1h1v3.3c0,1.6,0.7,3.2,2,4.3l1.7,1.5
				C-1.2,4.3-1.1,4.6-1.1,5c0,0.4-0.2,0.7-0.4,0.9l-1.7,1.5c-1.2,1.1-2,2.6-2,4.3V15h-1c-0.6,0-1,0.4-1,1c0,0.6,0.5,1,1,1h16.5
				c0.6,0,1-0.4,1-1C11.3,15.4,10.8,15,10.2,15L10.2,15z"/>
			<path id="Path_1_" class="st1" d="M-2.9,11.8c0-0.7,0.4-1.4,1-1.9l3.3-2.5c0.4-0.3,0.9-0.3,1.3,0l3.3,2.5c0.6,0.5,1,1.2,1,1.9v3
				h-9.8V11.8z"/>
		</g>
	</g>
</g>
</svg>
