<?xml version="1.0" encoding="utf-8"?>
<!-- Generator: Adobe Illustrator 24.3.0, SVG Export Plug-In . SVG Version: 6.00 Build 0)  -->
<svg version="1.1" id="Layer_1" xmlns="http://www.w3.org/2000/svg" xmlns:xlink="http://www.w3.org/1999/xlink" x="0px" y="0px"
	 viewBox="0 0 24 24" style="enable-background:new 0 0 24 24;" xml:space="preserve">
<style type="text/css">
	.st0{fill:#878F9D;}
	.st1{fill:#CCCDCD;}
</style>
<g id="Symbols">
	<g id="notification">
		<g id="_x33_602482" transform="translate(9.000000, 8.000000)">
			<path id="Path" class="st0" d="M12.2,8.6c-1.5-1.3-2.3-3.1-2.3-5V0.8C9.9-2.6,7.3-5.5,4-6V-7c0-0.5-0.4-1-1-1S2-7.6,2-7V-6
				c-3.3,0.5-5.9,3.3-5.9,6.8v2.7c0,1.9-0.9,3.8-2.3,5c-0.4,0.3-0.6,0.8-0.6,1.3c0,0.9,0.8,1.7,1.7,1.7h16.2c0.9,0,1.7-0.8,1.7-1.7
				C12.8,9.4,12.6,8.9,12.2,8.6L12.2,8.6z"/>
			<path id="Path_1_" class="st1" d="M2.5,16c1.9,0,3.5-1.4,3.8-3.3h-7.6C-1,14.6,0.6,16,2.5,16L2.5,16z"/>
		</g>
	</g>
</g>
</svg>
