<?xml version="1.0" encoding="utf-8"?>
<!-- Generator: Adobe Illustrator 24.3.0, SVG Export Plug-In . SVG Version: 6.00 Build 0)  -->
<svg version="1.1" id="Layer_1" xmlns="http://www.w3.org/2000/svg" xmlns:xlink="http://www.w3.org/1999/xlink" x="0px" y="0px"
	 viewBox="0 0 24 24" style="enable-background:new 0 0 24 24;" xml:space="preserve">
<style type="text/css">
	.st0{fill:#878F9D;}
	.st1{fill:#CCCDCD;}
</style>
<g id="Symbols">
	<g id="security">
		<g id="_x31_828288" transform="translate(10.000000, 7.000000)">
			<path id="Path" class="st0" d="M9,1.7H-5c-1.3,0-2.3,1-2.3,2.3v10.7c0,1.3,1,2.3,2.3,2.3H9c1.3,0,2.3-1,2.3-2.3V4
				C11.3,2.8,10.2,1.7,9,1.7z"/>
			<path id="Path_1_" class="st1" d="M9.1-1.2v2.9H6.9v-2.9c0-2.1-2-3.9-4.4-3.9s-4.4,1.7-4.4,3.9v2.9H-4v-2.9C-4-4.4-1.1-7,2.5-7
				S9.1-4.4,9.1-1.2z"/>
		</g>
	</g>
</g>
</svg>
