<?xml version="1.0" encoding="utf-8"?>
<!-- Generator: Adobe Illustrator 24.3.0, SVG Export Plug-In . SVG Version: 6.00 Build 0)  -->
<svg version="1.1" id="Layer_1" xmlns="http://www.w3.org/2000/svg" xmlns:xlink="http://www.w3.org/1999/xlink" x="0px" y="0px"
	 viewBox="0 0 24 24" style="enable-background:new 0 0 24 24;" xml:space="preserve">
<style type="text/css">
	.st0{fill:#00BCC7;}
</style>
<g id="Page-1">
	<g id="signal_count">
		<g id="Shape">
			<path id="path-1_1_" class="st0" d="M10.8,15.3H2.2c-0.9,0-1.4-1.1-0.8-1.8L12.3,0.4c0.7-0.8,2-0.2,1.9,0.8l-0.9,7.5h8.6
				c0.9,0,1.4,1.1,0.8,1.8L11.7,23.6c-0.7,0.8-2,0.2-1.9-0.8L10.8,15.3z M4.5,13.1H12c0.7,0,1.2,0.6,1.1,1.2l-0.6,5l7-8.4H12
				c-0.7,0-1.2-0.6-1.1-1.2l0.6-5L4.5,13.1z"/>
		</g>
	</g>
</g>
</svg>
