<?xml version="1.0" encoding="utf-8"?>
<!-- Generator: Adobe Illustrator 24.3.0, SVG Export Plug-In . SVG Version: 6.00 Build 0)  -->
<svg version="1.1" id="Layer_1" xmlns="http://www.w3.org/2000/svg" xmlns:xlink="http://www.w3.org/1999/xlink" x="0px" y="0px"
	 viewBox="0 0 24 24" style="enable-background:new 0 0 24 24;" xml:space="preserve">
<style type="text/css">
	.st0{fill:#878F9D;}
	.st1{fill:#CCCDCD;}
</style>
<g id="Symbols">
	<g id="sub_admin">
		<g id="_x31_828247" transform="translate(7.000000, 8.000000)">
			<path id="Shape" class="st0" d="M17-4c0-1.7-1.3-3-3-3H-4c-1.7,0-3,1.3-3,3v16c0,1.7,1.3,3,3,3h18c1.7,0,3-1.3,3-3V-4z M15,12
				c0,0.6-0.4,1-1,1H-4c-0.6,0-1-0.4-1-1V-2h20L15,12L15,12z"/>
			<g id="Group" transform="translate(2.881356, 8.644068)">
				<path id="Path" class="st1" d="M-1.8-4.8C-2-5.1-2.4-5.3-2.8-5l-0.6,0.4v-0.7c0-0.4-0.3-0.8-0.8-0.8c-0.4,0-0.8,0.3-0.8,0.8v0.7
					L-5.5-5c-0.4-0.2-0.8-0.1-1,0.3c-0.2,0.4-0.1,0.8,0.3,1l0.6,0.4L-6.2-3c-0.4,0.2-0.5,0.7-0.3,1c0.1,0.2,0.4,0.4,0.6,0.4
					c0.1,0,0.3,0,0.4-0.1l0.6-0.4v0.7c0,0.4,0.3,0.7,0.8,0.7c0.4,0,0.8-0.3,0.8-0.7v-0.7l0.6,0.4c0.1,0.1,0.2,0.1,0.4,0.1
					c0.3,0,0.5-0.1,0.6-0.4C-1.5-2.4-1.7-2.8-2-3l-0.6-0.4L-2-3.7C-1.7-4-1.5-4.4-1.8-4.8z"/>
				<path id="Path_1_" class="st1" d="M4.5-4.8C4.3-5.1,3.8-5.3,3.5-5L2.9-4.7v-0.7c0-0.4-0.3-0.8-0.8-0.8S1.4-5.8,1.4-5.4v0.7
					L0.8-5c-0.4-0.2-0.8-0.1-1,0.3C-0.5-4.4-0.3-4,0-3.7l0.6,0.4L0-3c-0.4,0.2-0.5,0.7-0.3,1c0.1,0.2,0.4,0.4,0.6,0.4
					c0.1,0,0.3,0,0.4-0.1l0.6-0.4v0.7c0,0.4,0.3,0.7,0.8,0.7S2.9-1,2.9-1.4v-0.7l0.6,0.4c0.1,0.1,0.2,0.1,0.4,0.1
					c0.3,0,0.5-0.1,0.6-0.4c0.2-0.4,0.1-0.8-0.3-1L3.6-3.4l0.6-0.4C4.6-4,4.7-4.4,4.5-4.8L4.5-4.8z"/>
				<path id="Path_2_" class="st1" d="M11.3-4.8c-0.2-0.4-0.7-0.5-1-0.3L9.6-4.7v-0.7c0-0.4-0.3-0.8-0.8-0.8S8.1-5.8,8.1-5.4v0.7
					L7.5-5c-0.4-0.2-0.8-0.1-1,0.3C6.3-4.4,6.4-4,6.8-3.7l0.6,0.4L6.8-3C6.4-2.8,6.3-2.4,6.5-2c0.1,0.2,0.4,0.4,0.6,0.4
					c0.1,0,0.3,0,0.4-0.1l0.6-0.4v0.7c0,0.4,0.3,0.7,0.8,0.7S9.6-1,9.6-1.4v-0.7l0.6,0.4c0.1,0.1,0.2,0.1,0.4,0.1
					c0.3,0,0.5-0.1,0.6-0.4c0.2-0.4,0.1-0.8-0.3-1l-0.6-0.4L11-3.7C11.3-4,11.5-4.4,11.3-4.8L11.3-4.8z"/>
			</g>
		</g>
	</g>
</g>
</svg>
