<?xml version="1.0" encoding="utf-8"?>
<!-- Generator: Adobe Illustrator 24.3.0, SVG Export Plug-In . SVG Version: 6.00 Build 0)  -->
<svg version="1.1" id="Layer_1" xmlns="http://www.w3.org/2000/svg" xmlns:xlink="http://www.w3.org/1999/xlink" x="0px" y="0px"
	 viewBox="0 0 24 24" style="enable-background:new 0 0 24 24;" xml:space="preserve">
<style type="text/css">
	.st0{fill:#00BCC7;}
</style>
<g id="Page-1">
	<g id="subscribed_user">
		<g id="Combined-Shape">
			<path id="path-1_1_" class="st0" d="M12,14c2.8,0,5,2.2,5,5l0,0v2c0,0.6-0.4,1-1,1c-0.6,0-1-0.4-1-1l0,0v-2c0-1.7-1.3-3-3-3l0,0
				H5c-1.7,0-3,1.3-3,3l0,0v2c0,0.6-0.4,1-1,1s-1-0.4-1-1l0,0v-2c0-2.8,2.2-5,5-5l0,0H12z M22.3,8.3c0.4-0.4,1-0.4,1.4,0
				c0.4,0.4,0.4,1,0,1.4l0,0l-4,4c-0.4,0.4-1,0.4-1.4,0l0,0l-2-2c-0.4-0.4-0.4-1,0-1.4c0.4-0.4,1-0.4,1.4,0l0,0l1.3,1.3L22.3,8.3z
				 M8.5,2c2.8,0,5,2.2,5,5s-2.2,5-5,5s-5-2.2-5-5S5.7,2,8.5,2z M8.5,4c-1.7,0-3,1.3-3,3s1.3,3,3,3s3-1.3,3-3S10.2,4,8.5,4z"/>
		</g>
	</g>
</g>
</svg>
