<?xml version="1.0" encoding="utf-8"?>
<!-- Generator: Adobe Illustrator 24.3.0, SVG Export Plug-In . SVG Version: 6.00 Build 0)  -->
<svg version="1.1" id="Layer_1" xmlns="http://www.w3.org/2000/svg" xmlns:xlink="http://www.w3.org/1999/xlink" x="0px" y="0px"
	 viewBox="0 0 24 24" style="enable-background:new 0 0 24 24;" xml:space="preserve">
<style type="text/css">
	.st0{fill:#00BCC7;}
</style>
<g id="Page-1">
	<g id="subscribed_user-copy" transform="translate(1.000000, 1.000000)">
		<g id="dollar-sign">
			<path class="st0" d="M11.7,23c-0.7,0-1.3-0.6-1.3-1.3V0.3c0-0.7,0.6-1.3,1.3-1.3C12.4-1,13-0.4,13,0.3v21.3
				C13,22.4,12.4,23,11.7,23z"/>
			<path class="st0" d="M13.2,19H5.7c-0.7,0-1.3-0.6-1.3-1.3c0-0.7,0.6-1.3,1.3-1.3h7.6c1,0,1.8-0.9,1.8-2s-0.8-2-1.8-2H8.8
				c-2.5,0-4.4-2.1-4.4-4.7S6.3,3,8.8,3h6.7c0.7,0,1.3,0.6,1.3,1.3s-0.6,1.3-1.3,1.3H8.8c-1,0-1.8,0.9-1.8,2s0.8,2,1.8,2h4.4
				c2.5,0,4.4,2.1,4.4,4.7C17.7,16.9,15.7,19,13.2,19z"/>
		</g>
	</g>
</g>
</svg>
