<?xml version="1.0" encoding="utf-8"?>
<!-- Generator: Adobe Illustrator 24.3.0, SVG Export Plug-In . SVG Version: 6.00 Build 0)  -->
<svg version="1.1" id="Layer_1" xmlns="http://www.w3.org/2000/svg" xmlns:xlink="http://www.w3.org/1999/xlink" x="0px" y="0px"
	 viewBox="0 0 24 24" style="enable-background:new 0 0 24 24;" xml:space="preserve">
<style type="text/css">
	.st0{fill:#00BCC7;}
</style>
<g id="Page-1">
	<g id="total_trade_pair">
		<g id="Combined-Shape">
			<path id="path-1_1_" class="st0" d="M23,5c0.1,0,0.1,0,0.2,0c0,0,0.1,0,0.1,0c0,0,0,0,0,0c0,0,0.1,0,0.1,0c0,0,0,0,0,0
				c0,0,0,0,0.1,0c0,0,0,0,0,0c0,0,0,0,0.1,0c0,0,0.1,0.1,0.1,0.1l-0.1-0.1c0,0,0,0,0.1,0.1l0,0c0,0,0,0,0,0c0,0,0,0,0.1,0.1
				c0,0,0,0,0,0c0,0,0,0,0,0.1c0,0,0,0,0,0.1c0,0,0,0,0,0.1c0,0,0,0,0,0C24,5.8,24,5.9,24,6l0,0v6c0,0.6-0.4,1-1,1s-1-0.4-1-1l0,0
				l0-3.6l-7.8,7.8c-0.4,0.4-0.9,0.4-1.3,0.1l-0.1-0.1l-4.3-4.3l-6.8,6.8c-0.4,0.4-1,0.4-1.4,0c-0.4-0.4-0.4-1,0-1.4l0,0l7.5-7.5
				c0.4-0.4,1-0.4,1.4,0l0,0l4.3,4.3L20.6,7L17,7c-0.5,0-0.9-0.4-1-0.9L16,6c0-0.6,0.4-1,1-1l0,0H23z"/>
		</g>
	</g>
</g>
</svg>
