<?xml version="1.0" encoding="utf-8"?>
<!-- Generator: Adobe Illustrator 24.3.0, SVG Export Plug-In . SVG Version: 6.00 Build 0)  -->
<svg version="1.1" id="Layer_1" xmlns="http://www.w3.org/2000/svg" xmlns:xlink="http://www.w3.org/1999/xlink" x="0px" y="0px"
	 viewBox="0 0 24 24" style="enable-background:new 0 0 24 24;" xml:space="preserve">
<style type="text/css">
	.st0{fill:#00BCC7;}
	.st1{fill-rule:evenodd;clip-rule:evenodd;fill:#00BCC7;}
</style>
<g id="Page-1">
	<g id="total_bot">
		<path class="st0" d="M17.7,23.8H5.9c-2.4,0-4.4-2-4.4-4.4v-8.9C1.5,8,3.5,6,5.9,6h11.8c2.4,0,4.4,2,4.4,4.4v8.9
			C22.2,21.8,20.2,23.8,17.7,23.8z M5.9,9c-0.8,0-1.5,0.7-1.5,1.5v8.9c0,0.8,0.7,1.5,1.5,1.5h11.8c0.8,0,1.5-0.7,1.5-1.5v-8.9
			c0-0.8-0.7-1.5-1.5-1.5H5.9z"/>
		<circle id="Oval" class="st1" cx="8.9" cy="14.9" r="1.5"/>
		<circle id="Oval-Copy-7" class="st1" cx="14.8" cy="14.9" r="1.5"/>
		<rect x="20.7" y="13.4" class="st0" width="3.3" height="3"/>
		<rect y="13.4" class="st0" width="3.3" height="3"/>
		<rect x="10.3" y="0.2" class="st0" width="3" height="7.3"/>
	</g>
</g>
</svg>
