<?xml version="1.0" encoding="utf-8"?>
<!-- Generator: Adobe Illustrator 24.3.0, SVG Export Plug-In . SVG Version: 6.00 Build 0)  -->
<svg version="1.1" id="Layer_1" xmlns="http://www.w3.org/2000/svg" xmlns:xlink="http://www.w3.org/1999/xlink" x="0px" y="0px"
	 viewBox="0 0 24 24" style="enable-background:new 0 0 24 24;" xml:space="preserve">
<style type="text/css">
	.st0{fill:#00BCC7;}
</style>
<g id="Page-1">
	<g id="total_trade">
		<g id="Combined-Shape">
			<path id="path-1_1_" class="st0" d="M10.9,3.3v17.5h2.2V3.3H10.9z M14.2,1.1c0.6,0,1.1,0.5,1.1,1.1v19.6c0,0.6-0.5,1.1-1.1,1.1
				H9.8c-0.6,0-1.1-0.5-1.1-1.1V2.2c0-0.6,0.5-1.1,1.1-1.1H14.2z M22.9,6.5C23.5,6.5,24,7,24,7.6v14.2c0,0.6-0.5,1.1-1.1,1.1h-4.4
				c-0.6,0-1.1-0.5-1.1-1.1V7.6c0-0.6,0.5-1.1,1.1-1.1H22.9z M5.5,12c0.6,0,1.1,0.5,1.1,1.1v8.7c0,0.6-0.5,1.1-1.1,1.1H1.1
				c-0.6,0-1.1-0.5-1.1-1.1v-8.7C0,12.5,0.5,12,1.1,12H5.5z M21.8,8.7h-2.2v12h2.2V8.7z M4.4,14.2H2.2v6.5h2.2V14.2z"/>
		</g>
	</g>
</g>
</svg>
