<svg id="Layer_1" data-name="Layer 1" xmlns="http://www.w3.org/2000/svg" xmlns:xlink="http://www.w3.org/1999/xlink" viewBox="0 0 50 50"><defs><style>.cls-1{fill:none;}.cls-2{fill:#57c8c7;}.cls-3{fill:#69d8d7;}.cls-4{fill:#85efee;}.cls-5{clip-path:url(#clip-path);}.cls-6{fill:#69d9d8;}.cls-7{fill:#84ebea;}.cls-8{fill:#fff;}</style><clipPath id="clip-path"><rect class="cls-1" x="10.47" y="13.85" width="29.04" height="17"/></clipPath></defs><circle class="cls-2" cx="25" cy="25" r="25"/><path class="cls-3" d="M27.65,34.42H22.32l.91-1.93L24,30.67H26l.79,1.82Z"/><path class="cls-4" d="M31,34.42H18.94a1.22,1.22,0,0,0-1.21,1.21v3.94H32.19V35.63a1.12,1.12,0,0,0-1-1.2H31"/><path class="cls-3" d="M26.74,32.49a14.61,14.61,0,0,1-1.45.66l-.3.07-.3-.13a15.92,15.92,0,0,1-1.46-.66L24,30.61h1.87Z"/><path class="cls-1" d="M10.47,13.85h29v17h-29Z"/><g class="cls-5"><path class="cls-6" d="M25,30.85a13.72,13.72,0,0,1-5.51-1.09A14.57,14.57,0,0,1,13,24.5a14.34,14.34,0,0,1-2.53-8.17V13.85h29v2.48A14.42,14.42,0,0,1,37,24.5a14.59,14.59,0,0,1-6.49,5.26A13.67,13.67,0,0,1,25,30.85ZM12.89,16.27v.06A12.08,12.08,0,0,0,34.3,24a11.9,11.9,0,0,0,2.79-7.69H37v-.06Z"/></g><path class="cls-7" d="M34.42,10.52H15.55a.75.75,0,0,0-.73.73.76.76,0,0,0,.71.79H34.42a.75.75,0,0,0,.73-.73.76.76,0,0,0-.71-.79h0"/><path class="cls-4" d="M34.43,12v6.53A14.75,14.75,0,0,1,25,32.31a14.82,14.82,0,0,1-9.44-13.8V12Z"/><path class="cls-8" d="M25,14.76l1.27,3.87h4.06L27,21.05l1.21,3.88L25,22.5l-3.27,2.42,1.21-3.87-3.27-2.42h4.06Z"/><path class="cls-3" d="M15.55,12.94H34.37V12H15.55Z"/></svg>