<svg xmlns="http://www.w3.org/2000/svg" xmlns:xlink="http://www.w3.org/1999/xlink" width="50" height="50" viewBox="0 0 50 50"><defs><style>.a{fill:none;}.b{fill:#e0e2e7;}.c{fill:#cbcfdd;}.d{fill:#aab6c8;}.e{clip-path:url(#a);}.f{fill:#aeb9cc;}.g{fill:#fff;}</style><clipPath id="a"><path class="a" d="M0,0H29.044V17H0Z" transform="translate(0 0.053)"/></clipPath></defs><circle class="b" cx="25" cy="25" r="25"/><g transform="translate(10.465 10.497)"><path class="c" d="M13.312,0H1.21A1.214,1.214,0,0,0,0,1.21V5.143H14.461V1.21A1.128,1.128,0,0,0,13.312,0" transform="translate(7.261 23.927)"/><path class="d" d="M3.51,1.876a15.465,15.465,0,0,1-1.452.666l-.3.061-.3-.121A15.478,15.478,0,0,1,0,1.815L.787,0H2.662Z" transform="translate(12.767 20.115)"/><g transform="translate(0 3.301)"><path class="a" d="M0,0H29.044V17H0Z" transform="translate(0 0.053)"/><g class="e"><path class="f" d="M14.522,17a13.893,13.893,0,0,1-5.506-1.089,14.621,14.621,0,0,1-6.482-5.264A14.4,14.4,0,0,1,0,2.48V0H29.044V2.481a14.4,14.4,0,0,1-2.534,8.168,14.622,14.622,0,0,1-6.482,5.264A13.887,13.887,0,0,1,14.522,17ZM2.42,2.42v.06A12.13,12.13,0,0,0,5.2,10.166a12.029,12.029,0,0,0,9.318,4.417,12.192,12.192,0,0,0,9.319-4.417A11.914,11.914,0,0,0,26.624,2.48h-.061V2.42Z" transform="translate(0 0.053)"/></g></g><path class="c" d="M19.6,0H.726A.736.736,0,0,0,0,.726a.75.75,0,0,0,.726.787H19.6a.736.736,0,0,0,.726-.726A.75.75,0,0,0,19.6,0" transform="translate(4.357 0.026)"/><path class="c" d="M18.878,0V6.535A14.746,14.746,0,0,1,9.439,20.27,14.826,14.826,0,0,1,0,6.474V0Z" transform="translate(5.083 1.539)"/><path class="g" d="M5.325,0,6.6,3.872h4.054L7.382,6.293l1.21,3.873L5.325,7.745l-3.267,2.42,1.21-3.873L0,3.872H4.054Z" transform="translate(9.197 4.262)"/><path class="d" d="M0,.908H18.818V0H0Z" transform="translate(5.083 1.539)"/></g></svg>