<?xml version="1.0" encoding="utf-8"?>
<!-- Generator: Adobe Illustrator 24.1.0, SVG Export Plug-In . SVG Version: 6.00 Build 0)  -->
<svg version="1.1" id="Layer_1" xmlns="http://www.w3.org/2000/svg" xmlns:xlink="http://www.w3.org/1999/xlink" x="0px" y="0px"
	 viewBox="0 0 50 50" style="enable-background:new 0 0 50 50;" xml:space="preserve">
<style type="text/css">
	.st0{fill:#FDA35C;}
	.st1{fill:#F2B385;}
	.st2{fill:#FEDABD;}
	.st3{fill:none;}
	.st4{clip-path:url(#SVGID_2_);}
	.st5{fill:#F9B785;}
	.st6{fill:#FFFFFF;}
</style>
<g transform="translate(25.5 22.5)">
	<g transform="matrix(1, 0, 0, 1, -25.5, -22.5)">
		<circle class="st0" cx="25" cy="25" r="25"/>
	</g>
	<g transform="translate(10.465 10.465)">
		<path class="st1" d="M-8.3,1.5h-5.3l0.9-1.9l0.8-1.8h1.9l0.8,1.8L-8.3,1.5z"/>
		<g transform="translate(0 0.032)">
			<path class="st2" d="M-4.9,1.4H-17c-0.7,0-1.2,0.5-1.2,1.2v3.9h14.5V2.6c0-0.6-0.4-1.2-1-1.2C-4.9,1.4-4.9,1.4-4.9,1.4"/>
			<path class="st1" d="M-9.2-0.5c-0.5,0.2-1,0.5-1.5,0.7L-11,0.2l-0.3-0.1c-0.5-0.2-1-0.4-1.5-0.7l0.8-1.8h1.9L-9.2-0.5z"/>
			<g transform="translate(0 3.301)">
				<path class="st3" d="M-25.5-22.4h29v17h-29V-22.4z"/>
				<g>
					<defs>
						<rect id="SVGID_1_" x="-25.5" y="-22.4" width="29" height="17"/>
					</defs>
					<clipPath id="SVGID_2_">
						<use xlink:href="#SVGID_1_"  style="overflow:visible;"/>
					</clipPath>
					<g class="st4">
						<path class="st5" d="M-11-5.4c-1.9,0-3.8-0.4-5.5-1.1c-2.6-1.1-4.9-2.9-6.5-5.3c-1.7-2.4-2.5-5.3-2.5-8.2v-2.5h29v2.5
							c0,2.9-0.9,5.8-2.5,8.2c-1.6,2.3-3.9,4.2-6.5,5.3C-7.2-5.8-9.1-5.4-11-5.4z M-23.1-20L-23.1-20c0,2.9,1,5.6,2.8,7.7
							c2.3,2.8,5.7,4.4,9.3,4.4c3.6,0,7-1.6,9.3-4.4c1.8-2.2,2.8-4.9,2.8-7.7H1.1V-20H-23.1z"/>
					</g>
				</g>
			</g>
			<path class="st2" d="M-1.5-22.5h-18.9c-0.4,0-0.7,0.3-0.7,0.7c0,0.4,0.3,0.8,0.7,0.8c0,0,0,0,0,0h18.9c0.4,0,0.7-0.3,0.7-0.7
				C-0.8-22.1-1.1-22.5-1.5-22.5C-1.5-22.5-1.5-22.5-1.5-22.5"/>
			<path class="st2" d="M-1.5-21v6.5c0,6.1-3.8,11.5-9.4,13.7c-5.7-2.2-9.4-7.7-9.4-13.8V-21H-1.5z"/>
			<path class="st6" d="M-11-18.2l1.3,3.9h4.1l-3.3,2.4l1.2,3.9l-3.3-2.4l-3.3,2.4l1.2-3.9l-3.3-2.4h4.1L-11-18.2z"/>
			<path class="st5" d="M-20.4-20.1h18.8V-21h-18.8V-20.1z"/>
		</g>
	</g>
</g>
</svg>
