<?xml version="1.0" encoding="utf-8"?>
<!-- Generator: Adobe Illustrator 24.3.0, SVG Export Plug-In . SVG Version: 6.00 Build 0)  -->
<svg version="1.1" id="Layer_1" xmlns="http://www.w3.org/2000/svg" xmlns:xlink="http://www.w3.org/1999/xlink" x="0px" y="0px"
	 viewBox="0 0 24 24" style="enable-background:new 0 0 24 24;" xml:space="preserve">
<style type="text/css">
	.st0{fill:#878F9D;}
	.st1{fill:#CCCDCD;}
</style>
<g>
	<path class="st0" d="M19.8,10.8L16.5,8h-0.7c-1,0-1.7-0.8-1.7-1.7V4.8c0-1,0.8-1.7,1.7-1.7h0.7l3.3-2.8C20.2-0.2,21,0.1,21,0.8v9.5
		C21,10.9,20.2,11.2,19.8,10.8z"/>
	<path class="st0" d="M22.2,7.5c-0.3-0.3-0.3-0.8,0-1.1c0.1-0.1,0.3-0.5,0.3-1c0-0.5-0.1-0.8-0.3-1c-0.3-0.3-0.3-0.8,0-1.1
		c0.3-0.3,0.8-0.3,1.1,0c0.5,0.5,0.7,1.2,0.7,2C24,7.4,22.9,8.2,22.2,7.5z"/>
	<path class="st1" d="M12,4v0.7c0-1.4,0.8-2.7,2-3.3C13.8,0.6,13.1,0,12.2,0H9.7C8.8,0,8,0.8,8,1.8v20.5c0,1,0.8,1.7,1.7,1.7h2.5
		c1,0,1.7-0.8,1.7-1.7V9.6c-1.2-0.6-2-1.9-2-3.3"/>
	<g>
		<path class="st1" d="M4.3,6H1.8C0.8,6,0,6.8,0,7.8V21v1.2c0,1,0.8,1.7,1.7,1.7h2.5c1,0,1.7-0.8,1.7-1.7V21V7.8C6,6.8,5.2,6,4.3,6z
			"/>
		<path class="st1" d="M20.2,13c-0.7,0-1.3-0.2-1.8-0.7L16,10.2V21v1.2c0,1,0.8,1.7,1.7,1.7h2.5c1,0,1.7-0.8,1.7-1.7V21v-8.6
			C21.5,12.8,20.9,13,20.2,13z"/>
	</g>
</g>
</svg>
