<?xml version="1.0" encoding="utf-8"?>
<!-- Generator: Adobe Illustrator 24.3.0, SVG Export Plug-In . SVG Version: 6.00 Build 0)  -->
<svg version="1.1" id="Layer_1" xmlns="http://www.w3.org/2000/svg" xmlns:xlink="http://www.w3.org/1999/xlink" x="0px" y="0px"
	 viewBox="0 0 24 24" style="enable-background:new 0 0 24 24;" xml:space="preserve">
<style type="text/css">
	.st0{fill:#CCCDCD;}
	.st1{fill:#878F9D;}
</style>
<g transform="translate(-9 -9)">
	<path class="st0" d="M31.2,9H10.8C9.8,9,9,9.8,9,10.8v2.5c0,1,0.8,1.7,1.8,1.7h20.5c1,0,1.7-0.8,1.7-1.8v-2.5C33,9.8,32.2,9,31.2,9
		"/>
	<path class="st1" d="M10.8,33h2.5c1,0,1.7-0.8,1.7-1.7V18.8c0-1-0.8-1.7-1.8-1.8h-2.5c-1,0-1.7,0.8-1.8,1.8v12.5
		C9,32.2,9.8,33,10.8,33"/>
	<path class="st0" d="M31.3,17H18.8c-1,0-1.7,0.8-1.8,1.8v12.5c0,1,0.8,1.7,1.8,1.7h12.5c1,0,1.7-0.8,1.7-1.7V18.8
		C33,17.8,32.2,17,31.3,17"/>
</g>
</svg>
