<svg xmlns="http://www.w3.org/2000/svg" width="19.613" height="26.136" viewBox="0 0 19.613 26.136"><g transform="translate(-8.202 -4.936)"><g transform="translate(8.156 4.922)"><path d="M8.163,16.334A8.167,8.167,0,1,0,0,8.163,8.174,8.174,0,0,0,8.163,16.334Z" transform="translate(0.049 0.014)" fill="#878f9d"/><path d="M18.509,0H15.24a1.09,1.09,0,0,0,0,2.18h.492L10.81,6.75,7.182,4.029A1.083,1.083,0,0,0,5.8,4.092L.362,8.993A1.09,1.09,0,0,0,1.824,10.61l4.781-4.3,3.642,2.728a1.085,1.085,0,0,0,1.392-.07l5.794-5.379v.766a1.09,1.09,0,0,0,2.18,0V1.083A1.111,1.111,0,0,0,18.509,0Z" transform="translate(0.046 15.258)" fill="#cccdcd"/></g><path d="M5.421,0a.987.987,0,0,0-.984.984V4.261L1.786.422A.953.953,0,0,0,.984,0,.987.987,0,0,0,0,.984v6.4a.984.984,0,0,0,1.969,0V4.12L4.605,7.931a.983.983,0,0,0,1.8-.548V.984A.987.987,0,0,0,5.421,0Z" transform="translate(12.923 8.866)" fill="#fff"/></g></svg>