<?xml version="1.0" encoding="utf-8"?>
<!-- Generator: Adobe Illustrator 24.3.0, SVG Export Plug-In . SVG Version: 6.00 Build 0)  -->
<svg version="1.1" id="Layer_1" xmlns="http://www.w3.org/2000/svg" xmlns:xlink="http://www.w3.org/1999/xlink" x="0px" y="0px"
	 viewBox="0 0 24 24" style="enable-background:new 0 0 24 24;" xml:space="preserve">
<style type="text/css">
	.st0{display:none;fill:#8CE1EB;}
	.st1{display:none;fill:#FFFFFF;}
	.st2{fill:#878F9D;}
	.st3{fill:#CCCDCD;}
</style>
<path class="st0" d="M81.3-116H-57.3c-32.3,0-58.7,26.3-58.7,58.7S-89.7,1.4-57.3,1.4H81.4c32.3,0,58.7-26.3,58.7-58.7
	S113.7-116,81.3-116z M-57.3-30.7C-72-30.7-84-42.7-84-57.4s12-26.7,26.7-26.7s26.7,12,26.7,26.7S-42.6-30.7-57.3-30.7z"/>
<path class="st1" d="M81.3,22.7H-57.3C-89.6,22.7-116,49-116,81.4s26.3,58.7,58.7,58.7H81.4c32.3,0,58.7-26.3,58.7-58.7
	S113.7,22.7,81.3,22.7z M81.3,108c-14.7,0-26.7-12-26.7-26.7s12-26.7,26.7-26.7s26.7,12,26.7,26.7S96,108,81.3,108z"/>
<g>
	<path class="st2" d="M21,1H3C1.3,1,0,2.4,0,4v6.4c0,2,1.6,3.6,3.6,3.6c1.1,0,2-0.5,2.7-1.2C7,13.5,8,14,9.1,14
		c1.1,0,2.2-0.5,2.9-1.3c0.7,0.8,1.7,1.3,2.9,1.3c1.1,0,2.1-0.5,2.8-1.2c0.7,0.7,1.6,1.2,2.7,1.2c2,0,3.6-1.6,3.6-3.6V4
		C24,2.4,22.6,1,21,1z M5.3,10.1v0.2c0,0.9-0.7,1.6-1.6,1.6S2,11.3,2,10.4V7h3.3L5.3,10.1L5.3,10.1z M11,10.1c0,1-0.8,1.9-1.9,1.9
		c-1,0-1.9-0.8-1.9-1.9V7H11V10.1z M16.7,10.1c0,1-0.8,1.9-1.9,1.9S13,11.2,13,10.1V7h3.7V10.1z M22,10.4c0,0.9-0.7,1.6-1.6,1.6
		c-0.9,0-1.6-0.7-1.6-1.6v-0.2V7H22L22,10.4L22,10.4z"/>
	<path class="st3" d="M22,15.8V20c0,0.5-0.4,1-1,1H3c-0.5,0-1-0.4-1-1v-4.2c-0.7-0.2-1.4-0.6-2-1.1V20c0,1.6,1.3,3,3,3h18
		c1.6,0,3-1.3,3-3v-5.3C23.4,15.2,22.7,15.5,22,15.8z"/>
</g>
</svg>
