<svg xmlns="http://www.w3.org/2000/svg" width="15.687" height="16.063" viewBox="0 0 15.687 16.063"><g transform="translate(-10.145 -10.145)"><path d="M8.554,16.041H8.6a8.081,8.081,0,0,0,6.983-5.268,1.162,1.162,0,0,0-1.261-1.643,7.06,7.06,0,0,1-1.989-.173A5.7,5.7,0,0,1,8.323,1.629a1.182,1.182,0,0,0-.3-1.348A1.1,1.1,0,0,0,7.228,0,8.042,8.042,0,0,0,0,8.006c0,.216.007.432.029.649A11.461,11.461,0,0,0,.223,9.866c.043.18.087.36.144.54a8.061,8.061,0,0,0,2.565,3.812c.058.05.115.094.18.144.014.007.022.022.036.029a8.135,8.135,0,0,0,4.482,1.665c.1.007.2.007.3.007h.4a1.069,1.069,0,0,1,.223-.022" transform="translate(10.145 10.145)" fill="#878f9d"/></g></svg>