<svg xmlns="http://www.w3.org/2000/svg" width="19.613" height="26.136" viewBox="0 0 19.613 26.136"><g transform="translate(-8.202 -4.936)"><g transform="translate(8.156 4.922)"><path d="M8.163,16.334A8.167,8.167,0,1,0,0,8.163,8.174,8.174,0,0,0,8.163,16.334Z" transform="translate(0.049 0.014)" fill="#878f9d"/><path d="M18.509,0H15.24a1.09,1.09,0,0,0,0,2.18h.492L10.81,6.75,7.182,4.029A1.083,1.083,0,0,0,5.8,4.092L.362,8.993A1.09,1.09,0,0,0,1.824,10.61l4.781-4.3,3.642,2.728a1.085,1.085,0,0,0,1.392-.07l5.794-5.379v.766a1.09,1.09,0,0,0,2.18,0V1.083A1.111,1.111,0,0,0,18.509,0Z" transform="translate(0.046 15.258)" fill="#cccdcd"/></g><path d="M3.649,3.178c-.816-.267-1.308-.45-1.308-.787,0-.478.64-.527.914-.527a1.962,1.962,0,0,1,1.322.492,1.073,1.073,0,0,0,.717.338.944.944,0,0,0,.949-.942A.953.953,0,0,0,6.075,1.2L6.068,1.2A3.427,3.427,0,0,0,3.255,0a3.218,3.218,0,0,0-2.18.7A2.23,2.23,0,0,0,.345,2.391C.345,4.155,1.877,4.662,3,5.027c.879.288,1.413.485,1.413.921,0,.218,0,.675-1.153.675A2.2,2.2,0,0,1,1.68,5.878a1,1,0,0,0-.738-.345.951.951,0,0,0-.8,1.448A3.7,3.7,0,0,0,3.255,8.508c1.969,0,3.143-.956,3.143-2.552C6.405,4.085,4.809,3.565,3.649,3.178Z" transform="translate(12.994 8.726)" fill="#fff"/></g></svg>