<?xml version="1.0" encoding="UTF-8"?>
<svg width="45px" height="45px" viewBox="0 0 36 36" version="1.1" xmlns="http://www.w3.org/2000/svg" xmlns:xlink="http://www.w3.org/1999/xlink">
    <title>Group 7 Copy 8</title>
    <g id="Page-1" stroke="none" stroke-width="1" fill="none" fill-rule="evenodd">
        <g id="Group-7-Copy-8" fill-rule="nonzero">
            <g id="wallet" transform="translate(9.000000, 11.000000)">
                <path d="M12.0795454,3.34640108 L18,3.34640108 L18,1.03061829 C18,0.461388818 17.5466577,0 16.987541,0 L1.01245897,0 C0.453259229,0 0,0.461473399 0,1.03061829 L0,12.9693817 C0,13.5386112 0.453259229,14 1.01245897,14 L16.987541,14 C17.5467408,14 18,13.5385689 18,12.9693817 L18,10.6535989 L12.0795454,10.6535989 C10.8599,10.6535989 9.86759051,9.64353379 9.86759051,8.40197074 L9.86759051,5.59802926 C9.86754897,4.35646621 10.8598169,3.34640108 12.0795454,3.34640108 Z" id="Path" fill="#878F9D"></path>
                <path d="M19.1885878,5 L12.8114122,5 C12.3632558,5 12,5.33654643 12,5.75175088 L12,8.24824912 C12,8.66345357 12.3632558,9 12.8114122,9 L19.1885878,9 C19.6367442,9 20,8.66345357 20,8.24824912 L20,5.75175088 C20,5.33654643 19.6366629,5 19.1885878,5 Z M14.153768,7.88240831 C13.627742,7.88240831 13.201329,7.48734844 13.201329,7 C13.201329,6.51265156 13.627742,6.11759169 14.153768,6.11759169 C14.6797939,6.11759169 15.106207,6.51265156 15.106207,7 C15.106207,7.48734844 14.6797939,7.88240831 14.153768,7.88240831 Z" id="Shape" fill="#CCCDCD"></path>
            </g>
        </g>
    </g>
</svg>