<?xml version="1.0" encoding="UTF-8"?>
<svg width="36px" height="36px" viewBox="0 0 36 36" version="1.1" xmlns="http://www.w3.org/2000/svg" xmlns:xlink="http://www.w3.org/1999/xlink">
    <title>app_settings</title>
    <g id="Symbols" stroke="none" stroke-width="1" fill="none" fill-rule="evenodd">
        <g id="app_settings" fill="#878F9D" fill-rule="nonzero">
            <path d="M28.6817211,15.3944092 L26.8020751,15.1545411 C26.6479096,14.6773682 26.4571254,14.2170411 26.2322857,13.7805176 L27.3931034,12.286377 C27.8625572,11.6806641 27.8087275,10.8270263 27.2715288,10.3066406 L25.6969179,8.73156741 C25.1718035,8.18994141 24.3182179,8.13610838 23.7110773,8.604126 L22.2170278,9.76501463 C21.780531,9.541626 21.3202319,9.35083013 20.8430882,9.19665525 L20.6061642,7.31982422 C20.514617,6.56689453 19.8756179,6 19.1198047,6 L16.8801953,6 C16.1229173,6 15.4839182,6.56689453 15.3938358,7.31689453 L15.1539823,9.19665525 C14.6768386,9.35266116 14.2165396,9.541626 13.7800428,9.76501463 L12.2859933,8.604126 C11.6817821,8.13464353 10.8281965,8.18847656 10.3063778,8.72534175 L8.73140069,10.3004151 C8.18980775,10.8270263 8.13451325,11.6806641 8.60396707,12.286377 L9.76478484,13.7805176 C9.54140985,14.2170411 9.35062562,14.6773682 9.19462923,15.1545411 L7.31974367,15.3929443 C6.56685993,15.4844971 6,16.1235352 6,16.8793945 L6,19.1191406 C6,19.8764648 6.56685993,20.5155029 7.31681416,20.6055908 L9.19646015,20.8454589 C9.35062562,21.3226318 9.54140985,21.7829589 9.7662496,22.2194824 L8.60543182,23.713623 C8.13597801,24.3193359 8.18980775,25.1729737 8.72700643,25.6933594 L10.3016174,27.2684326 C10.8281965,27.8100586 11.6803174,27.8638916 12.2859933,27.3944092 L13.7800428,26.2335205 C14.2165396,26.4569092 14.6768386,26.6473388 15.1539823,26.8033448 L15.392371,28.6801758 C15.4824535,29.4331055 16.1214525,30 16.8787305,30 L19.1183399,30 C19.8756179,30 20.514617,29.4331055 20.6046994,28.6831055 L20.8445529,26.8033447 C21.3216967,26.6491699 21.7819957,26.458374 22.2184925,26.2335205 L23.7125419,27.3944092 C24.3167531,27.8638916 25.1718035,27.8100586 25.6921575,27.2728271 L27.2671346,25.6981201 C27.8087275,25.1715088 27.864022,24.3178711 27.3945682,23.7121582 L26.2337504,22.2180176 C26.4571254,21.7814942 26.6479096,21.321167 26.803906,20.8439942 L28.6802563,20.6055908 C29.4331401,20.5155029 30,19.8764648 30,19.1191406 L30,16.8793945 C29.9985352,16.1235352 29.4316753,15.4844971 28.6817211,15.3944092 L28.6817211,15.3944092 Z M18,23 C15.2428948,23 13,20.7571052 13,18 C13,15.2428948 15.2428948,13 18,13 C20.7571052,13 23,15.2428948 23,18 C23,20.7571052 20.7571052,23 18,23 Z" id="Shape"></path>
        </g>
    </g>
</svg>