<?xml version="1.0" encoding="UTF-8"?>
<svg width="36px" height="36px" viewBox="0 0 36 36" version="1.1" xmlns="http://www.w3.org/2000/svg" xmlns:xlink="http://www.w3.org/1999/xlink">
    <title>coupon</title>
    <g id="Symbols" stroke="none" stroke-width="1" fill="none" fill-rule="evenodd">
        <g id="coupon" fill-rule="nonzero">
            <g id="3702821" transform="translate(6.000000, 6.000000)">
                <g id="Group" transform="translate(6.000000, 4.968750)" fill="#CCCDCD">
                    <path d="M1.9995,4.03125 C0.897,4.03125 0,3.13425 0,2.03175 C0,0.92925 0.897,0.03225 1.9995,0.03225 C3.102,0.03225 3.999,0.92925 3.999,2.03175 C3.999,3.13425 3.1035,4.03125 1.9995,4.03125 Z" id="Path"></path>
                    <path d="M7.9995,10.03125 C6.897,10.03125 6,9.13425 6,8.03175 C6,6.92925 6.897,6.03225 7.9995,6.03225 C9.102,6.03225 9.999,6.92925 9.999,8.03175 C9.999,9.13425 9.1035,10.03125 7.9995,10.03125 Z" id="Path"></path>
                    <path d="M1.9995,10.03125 C1.791,10.03125 1.581,9.96675 1.401,9.83175 C0.9585,9.50025 0.87,8.87325 1.2015,8.43225 L7.2015,0.43275 C7.533,-0.00825 8.1585,-0.09825 8.601,0.23325 C9.0435,0.56475 9.132,1.19175 8.8005,1.63275 L2.8005,9.63225 C2.604,9.89325 2.3025,10.03125 1.9995,10.03125 Z" id="Path"></path>
                </g>
                <path d="M0,18.021 L0,20.979 C0,22.6335 1.3455,23.979 3,23.979 L15.4995,23.979 L15.501,23.979 C17.43,23.9775 18.999,22.4085 18.999,20.4795 L18.999,6.021 L22.9995,6.021 C23.5515,6.021 24,5.5725 24,5.0205 L24,3.5205 C24,1.938 22.9365,0.612 21.4905,0.1815 C21.3435,0.0885 21.183,0.021 21,0.021 L4.9995,0.021 C3.345,0.021 1.9995,1.3665 1.9995,3.021 L1.9995,17.0205 L1.0005,17.0205 C0.447,17.0205 0,17.469 0,18.021 L0,18.021 Z M13.0005,17.0205 L4.0005,17.0205 L4.0005,3.021 C4.0005,2.469 4.449,2.0205 5.001,2.0205 L17.352,2.0205 C17.133,2.4765 17.001,2.982 17.001,3.5205 L17.001,5.0205 L17.001,20.478 C17.001,21.3045 16.3275,21.978 15.501,21.978 C14.6745,21.978 14.001,21.3045 14.001,20.478 L14.001,18.0195 C13.9995,17.469 13.5525,17.0205 13.0005,17.0205 L13.0005,17.0205 Z" id="Shape" fill="#878F9D"></path>
            </g>
        </g>
    </g>
</svg>