<?xml version="1.0" encoding="UTF-8"?>
<svg width="36px" height="36px" viewBox="0 0 36 36" version="1.1" xmlns="http://www.w3.org/2000/svg" xmlns:xlink="http://www.w3.org/1999/xlink">
    <title>history</title>
    <g id="Symbols" stroke="none" stroke-width="1" fill="none" fill-rule="evenodd">
        <g id="history" fill-rule="nonzero">
            <g id="3602665" transform="translate(10.000000, 7.000000)">
                <path d="M16.0550833,20.167125 L15.1101667,20.167125 L15.1101667,17.166875 C15.1101667,15.675 14.4556667,14.246375 13.3124167,13.248125 L11.713,11.8525 C11.4608333,11.6325 11.322,11.328625 11.322,11 C11.322,10.671375 11.4608333,10.368875 11.713,10.148875 L13.3124167,8.751875 C14.4556667,7.753625 15.1101667,6.326375 15.1101667,4.833125 L15.1101667,1.832875 L16.0550833,1.832875 C16.5778333,1.832875 17,1.423125 17,0.917125 C17,0.411125 16.5778333,0 16.0550833,0 L0.944916667,0 C0.422166667,0 0,0.40975 0,0.917125 C0,1.4245 0.422166667,1.83425 0.944916667,1.83425 L1.88983333,1.83425 L1.88983333,4.8345 C1.88983333,6.326375 2.54433333,7.755 3.68758333,8.75325 L5.287,10.148875 C5.53916667,10.368875 5.678,10.67275 5.678,11.001375 C5.678,11.33 5.53916667,11.6325 5.287,11.8525 L3.68758333,13.2495 C2.54433333,14.24775 1.88983333,15.675 1.88983333,17.16825 L1.88983333,20.1685 L0.944916667,20.1685 C0.423583333,20.1685 0,20.579625 0,21.085625 C0,21.591625 0.422166667,22 0.944916667,22 L16.0565,22 C16.5778333,22 17,21.59025 17,21.082875 C17,20.5755 16.5778333,20.167125 16.0550833,20.167125 L16.0550833,20.167125 Z" id="Path" fill="#878F9D"></path>
                <path d="M4,17.2253316 C4,16.5821966 4.32233265,15.9784372 4.90624414,15.5229925 L7.90343146,13.1919561 C8.23251453,12.9360146 8.76748547,12.9360146 9.09656854,13.1919561 L12.0937559,15.5229925 C12.6776674,15.9771246 13,16.5821966 13,17.2253316 L13,20 L4,20 L4,17.2253316 Z" id="Path" fill="#CCCDCD"></path>
            </g>
        </g>
    </g>
</svg>