<?xml version="1.0" encoding="UTF-8"?>
<svg width="36px" height="36px" viewBox="0 0 36 36" version="1.1" xmlns="http://www.w3.org/2000/svg" xmlns:xlink="http://www.w3.org/1999/xlink">
    <title>notification</title>
    <g id="Symbols" stroke="none" stroke-width="1" fill="none" fill-rule="evenodd">
        <g id="notification" fill-rule="nonzero">
            <g id="3602482" transform="translate(9.000000, 8.000000)">
                <path d="M17.4411279,15.220489 C16.080396,14.0703465 15.300135,12.3883306 15.300135,10.6077696 L15.300135,8.09959502 C15.300135,4.93265337 12.9472026,2.31108445 9.90040498,1.87235638 L9.90040498,0.90040498 C9.90040498,0.402279886 9.49677516,0 9,0 C8.50322484,0 8.09959502,0.402279886 8.09959502,0.90040498 L8.09959502,1.87235638 C5.05144743,2.31108445 2.69986501,4.93265337 2.69986501,8.09959502 L2.69986501,10.6091195 C2.69986501,12.3896805 1.91960402,14.0703465 0.550772461,15.2285886 C0.201139943,15.5282736 0,15.9643018 0,16.4246288 C0,17.2926354 0.706014699,18 1.57537123,18 L16.4246288,18 C17.2926354,18 18,17.2939853 18,16.4246288 C18,15.9643018 17.7988601,15.5282736 17.4411279,15.220489 L17.4411279,15.220489 Z" id="Path" fill="#878F9D"></path>
                <path d="M8.50071443,22 C10.2253521,22 11.6685038,20.71 12,19 L5,19 C5.33292509,20.71 6.77607675,22 8.50071443,22 L8.50071443,22 Z" id="Path" fill="#CCCDCD"></path>
            </g>
        </g>
    </g>
</svg>