<?xml version="1.0" encoding="UTF-8"?>
<svg width="18px" height="20px" viewBox="0 0 18 20" version="1.1" xmlns="http://www.w3.org/2000/svg" xmlns:xlink="http://www.w3.org/1999/xlink">
    <title>signal_count</title>
    <defs>
        <path d="M9.05760744,12.5026985 L2.50159263,12.5026985 C1.79506125,12.5026985 1.40909786,11.6786506 1.86140823,11.1358782 L10.1947416,1.13587816 C10.7274523,0.49662523 11.7650361,0.947032346 11.6618242,1.77272744 L10.9455778,7.50269849 L17.5015926,7.50269849 C18.208124,7.50269849 18.5940874,8.32674639 18.141777,8.86951883 L9.80844369,18.8695188 C9.27573292,19.5087718 8.23814918,19.0583646 8.34136106,18.2326695 L9.05760744,12.5026985 Z M4.28079397,10.8360318 L10.0015926,10.8360318 C10.502841,10.8360318 10.8906631,11.2753498 10.8284909,11.7727274 L10.3477088,15.6189842 L15.7223913,9.16936516 L10.0015926,9.16936516 C9.5003443,9.16936516 9.11252219,8.73004717 9.1746944,8.23266955 L9.65547649,4.38641281 L4.28079397,10.8360318 Z" id="path-1"></path>
    </defs>
    <g id="Page-1" stroke="none" stroke-width="1" fill="none" fill-rule="evenodd">
        <g id="zap" transform="translate(-1.000000, 0.000000)">
            <mask id="mask-2" fill="white">
                <use xlink:href="#path-1"></use>
            </mask>
            <use id="Shape" fill="#000000" fill-rule="nonzero" xlink:href="#path-1"></use>
            <g id="COLOR/-green" mask="url(#mask-2)" fill="#00BCC7" fill-rule="evenodd">
                <rect id="Purple" x="0" y="0" width="20" height="20"></rect>
            </g>
        </g>
    </g>
</svg>