<?xml version="1.0" encoding="UTF-8"?>
<svg width="18px" height="20px" viewBox="0 0 18 20" version="1.1" xmlns="http://www.w3.org/2000/svg" xmlns:xlink="http://www.w3.org/1999/xlink">
    <title>signal_count</title>
    <defs>
        <path d="M8.05760744,12.5026985 L1.50159263,12.5026985 C0.795061254,12.5026985 0.409097864,11.6786506 0.861408227,11.1358782 L9.19474156,1.13587816 C9.72745234,0.49662523 10.7650361,0.947032346 10.6618242,1.77272744 L9.94557781,7.50269849 L16.5015926,7.50269849 C17.208124,7.50269849 17.5940874,8.32674639 17.141777,8.86951883 L8.80844369,18.8695188 C8.27573292,19.5087718 7.23814918,19.0583646 7.34136106,18.2326695 L8.05760744,12.5026985 Z M3.28079397,10.8360318 L9.00159263,10.8360318 C9.50284095,10.8360318 9.89066306,11.2753498 9.82849086,11.7727274 L9.34770876,15.6189842 L14.7223913,9.16936516 L9.00159263,9.16936516 C8.5003443,9.16936516 8.11252219,8.73004717 8.1746944,8.23266955 L8.65547649,4.38641281 L3.28079397,10.8360318 Z" id="path-1"></path>
    </defs>
    <g id="Page-1" stroke="none" stroke-width="1" fill="none" fill-rule="evenodd">
        <g id="signal_count">
            <mask id="mask-2" fill="white">
                <use xlink:href="#path-1"></use>
            </mask>
            <use id="Shape" fill="#00BCC7" fill-rule="nonzero" xlink:href="#path-1"></use>
        </g>
    </g>
</svg>