<?xml version="1.0" encoding="UTF-8"?>
<svg width="36px" height="36px" viewBox="0 0 36 36" version="1.1" xmlns="http://www.w3.org/2000/svg" xmlns:xlink="http://www.w3.org/1999/xlink">
    <title>sub_admin</title>
    <g id="Symbols" stroke="none" stroke-width="1" fill="none" fill-rule="evenodd">
        <g id="sub_admin" fill-rule="nonzero">
            <g id="1828247" transform="translate(7.000000, 8.000000)">
                <path d="M21.6949153,2.76880297 C21.6949153,1.27317271 20.4786812,0.0569385593 18.9830508,0.0569385593 L2.71186441,0.0569385593 C1.21623407,0.0569385593 0,1.27317271 0,2.76880297 L0,17.2325212 C0,18.7281515 1.21623407,19.9443856 2.71186441,19.9443856 L18.9830508,19.9443856 C20.4786812,19.9443856 21.6949153,18.7281515 21.6949153,17.2325212 L21.6949153,2.76880297 Z M19.887447,17.231197 C19.887447,17.7300715 19.4819253,18.1355932 18.9830508,18.1355932 L2.71186441,18.1355932 C2.21298992,18.1355932 1.80746822,17.7300715 1.80746822,17.231197 L1.80746822,4.57627119 L19.8861229,4.57627119 L19.8861229,17.231197 L19.887447,17.231197 Z" id="Shape" fill="#878F9D"></path>
                <g id="Group" transform="translate(2.881356, 8.644068)" fill="#CCCDCD">
                    <path d="M4.46901483,1.24337924 C4.28197831,0.917968729 3.86718746,0.808064068 3.54310119,0.995100678 L2.9939089,1.31256619 L2.9939089,0.677966102 C2.9939089,0.303893051 2.69001593,0 2.3159428,0 C1.94153864,0 1.63797669,0.303893051 1.63797669,0.677966102 L1.63797669,1.31124203 L1.08878441,0.993776441 C0.764698136,0.806739915 0.349907288,0.916644576 0.162870763,1.24205508 C-0.0244967797,1.56614144 0.0867320339,1.9809322 0.410818305,2.16829983 L0.960010593,2.48543432 L0.410818305,2.80256881 C0.0867320339,2.98993644 -0.0244967797,3.4047272 0.162870763,3.72881356 C0.287341102,3.94564356 0.516750508,4.06779661 0.749801356,4.06779661 C0.865002627,4.06779661 0.981859153,4.03932729 1.08878441,3.9770922 L1.63797669,3.65962661 L1.63797669,4.29290254 C1.63797669,4.66697559 1.94153864,4.97086864 2.3159428,4.97086864 C2.69001593,4.97086864 2.9939089,4.66697559 2.9939089,4.29290254 L2.9939089,3.65962661 L3.54310119,3.9770922 C3.65002644,4.03932729 3.76688297,4.06779661 3.88208424,4.06779661 C4.11645924,4.06779661 4.34454449,3.94564356 4.46901483,3.72881356 C4.65638237,3.4047272 4.54515356,2.98993644 4.22106729,2.80256881 L3.671875,2.48543432 L4.22106729,2.16829983 C4.54515356,1.98225636 4.65638237,1.56746559 4.46901483,1.24337924 Z" id="Path"></path>
                    <path d="M10.1191737,1.24337924 C9.9321372,0.917968729 9.51734644,0.808064068 9.19326008,0.995100678 L8.6440678,1.31124203 L8.6440678,0.677966102 C8.6440678,0.303893051 8.34017475,0 7.96610169,0 C7.59202864,0 7.28813559,0.303893051 7.28813559,0.677966102 L7.28813559,1.31124203 L6.73894331,0.993776441 C6.41485695,0.806739915 6.00006619,0.916644576 5.81302966,1.24205508 C5.62566203,1.56614144 5.73689085,1.9809322 6.0609772,2.16829983 L6.61016949,2.48543432 L6.0609772,2.80256881 C5.73689085,2.98993644 5.62566203,3.4047272 5.81302966,3.72881356 C5.9375,3.94564356 6.16690941,4.06779661 6.39996025,4.06779661 C6.51516153,4.06779661 6.63201797,4.03932729 6.73894331,3.9770922 L7.28813559,3.65962661 L7.28813559,4.29290254 C7.28813559,4.66697559 7.59202864,4.97086864 7.96610169,4.97086864 C8.34017475,4.97086864 8.6440678,4.66697559 8.6440678,4.29290254 L8.6440678,3.65962661 L9.19326008,3.9770922 C9.29886119,4.03932729 9.41571771,4.06779661 9.53091898,4.06779661 C9.76529398,4.06779661 9.99337924,3.94564356 10.1178496,3.72881356 C10.3052171,3.4047272 10.1939883,2.98993644 9.86990203,2.80256881 L9.3220339,2.48543432 L9.87122619,2.16829983 C10.1953125,1.98225636 10.3065414,1.56746559 10.1191737,1.24337924 L10.1191737,1.24337924 Z" id="Path"></path>
                    <path d="M16.2208686,1.24337924 C16.0338321,0.917968729 15.6190414,0.808064068 15.294955,0.995100678 L14.7457627,1.31124203 L14.7457627,0.677966102 C14.7457627,0.303893051 14.4418697,0 14.0677966,0 C13.6937236,0 13.3898305,0.303893051 13.3898305,0.677966102 L13.3898305,1.31124203 L12.8406382,0.993776441 C12.5178761,0.806739915 12.1017611,0.916644576 11.9147246,1.24205508 C11.7273569,1.56614144 11.8385858,1.9809322 12.1626721,2.16829983 L12.7118644,2.48543432 L12.1626721,2.80256881 C11.8385858,2.98993644 11.7273569,3.4047272 11.9147246,3.72881356 C12.0391949,3.94564356 12.2686043,4.06779661 12.5016552,4.06779661 C12.6168564,4.06779661 12.7337129,4.03932729 12.8406382,3.9770922 L13.3898305,3.65962661 L13.3898305,4.29290254 C13.3898305,4.66697559 13.6937236,4.97086864 14.0677966,4.97086864 C14.4418697,4.97086864 14.7457627,4.66697559 14.7457627,4.29290254 L14.7457627,3.65962661 L15.294955,3.9770922 C15.4005561,4.03932729 15.5174126,4.06779661 15.6326139,4.06779661 C15.8669889,4.06779661 16.0950742,3.94564356 16.2195445,3.72881356 C16.406912,3.4047272 16.2956832,2.98993644 15.9715969,2.80256881 L15.4237288,2.48543432 L15.9729211,2.16829983 C16.2970075,1.98225636 16.4082363,1.56746559 16.2208686,1.24337924 L16.2208686,1.24337924 Z" id="Path"></path>
                </g>
            </g>
        </g>
    </g>
</svg>