<?xml version="1.0" encoding="UTF-8"?>
<svg width="20px" height="18px" viewBox="0 0 20 18" version="1.1" xmlns="http://www.w3.org/2000/svg" xmlns:xlink="http://www.w3.org/1999/xlink">
    <title>subscribed_user</title>
    <defs>
        <path d="M10,10.6666667 C12.3011865,10.6666667 14.1666667,12.5321469 14.1666667,14.8333333 L14.1666667,14.8333333 L14.1666667,16.5 C14.1666667,16.9602373 13.7935706,17.3333333 13.3333333,17.3333333 C12.873096,17.3333333 12.5,16.9602373 12.5,16.5 L12.5,16.5 L12.5,14.8333333 C12.5,13.4526215 11.3807119,12.3333333 10,12.3333333 L10,12.3333333 L4.16666667,12.3333333 C2.78595479,12.3333333 1.66666667,13.4526215 1.66666667,14.8333333 L1.66666667,14.8333333 L1.66666667,16.5 C1.66666667,16.9602373 1.29357062,17.3333333 0.833333333,17.3333333 C0.373096042,17.3333333 0,16.9602373 0,16.5 L0,16.5 L0,14.8333333 C0,12.5321469 1.86548021,10.6666667 4.16666667,10.6666667 L4.16666667,10.6666667 Z M18.577411,5.91074435 C18.9028479,5.58530744 19.4304854,5.58530744 19.7559223,5.91074435 C20.0813592,6.23618126 20.0813592,6.76381874 19.7559223,7.08925565 L19.7559223,7.08925565 L16.422589,10.422589 C16.0971521,10.7480259 15.5695146,10.7480259 15.2440777,10.422589 L15.2440777,10.422589 L13.577411,8.75592232 C13.2519741,8.43048541 13.2519741,7.90284793 13.577411,7.57741102 C13.9028479,7.25197411 14.4304854,7.25197411 14.7559223,7.57741102 L14.7559223,7.57741102 L15.8333333,8.65482203 Z M7.08333333,0.666666667 C9.38451979,0.666666667 11.25,2.53214688 11.25,4.83333333 C11.25,7.13451979 9.38451979,9 7.08333333,9 C4.78214688,9 2.91666667,7.13451979 2.91666667,4.83333333 C2.91666667,2.53214688 4.78214688,0.666666667 7.08333333,0.666666667 Z M7.08333333,2.33333333 C5.70262146,2.33333333 4.58333333,3.45262146 4.58333333,4.83333333 C4.58333333,6.21404521 5.70262146,7.33333333 7.08333333,7.33333333 C8.46404521,7.33333333 9.58333333,6.21404521 9.58333333,4.83333333 C9.58333333,3.45262146 8.46404521,2.33333333 7.08333333,2.33333333 Z" id="path-1"></path>
    </defs>
    <g id="Page-1" stroke="none" stroke-width="1" fill="none" fill-rule="evenodd">
        <g id="subscribed_user">
            <mask id="mask-2" fill="white">
                <use xlink:href="#path-1"></use>
            </mask>
            <use id="Combined-Shape" fill="#00BCC7" fill-rule="nonzero" xlink:href="#path-1"></use>
        </g>
    </g>
</svg>