<?xml version="1.0" encoding="UTF-8"?>
<svg width="20px" height="18px" viewBox="0 0 20 18" version="1.1" xmlns="http://www.w3.org/2000/svg" xmlns:xlink="http://www.w3.org/1999/xlink">
    <title>total_active_trade</title>
    <defs>
        <path d="M12.5,14.8647686 L8.29056942,2.23647686 C8.03732044,1.47672994 6.96267956,1.47672994 6.70943058,2.23647686 L4.39936732,9.16666667 L1.66666667,9.16666667 C1.20642938,9.16666667 0.833333333,9.53976271 0.833333333,10 C0.833333333,10.4602373 1.20642938,10.8333333 1.66666667,10.8333333 L5,10.8333333 C5.35869201,10.8333333 5.67714104,10.6038083 5.79056942,10.2635231 L7.5,5.13523138 L11.7094306,17.7635231 C11.9626796,18.5232701 13.0373204,18.5232701 13.2905694,17.7635231 L15.6006327,10.8333333 L18.3333333,10.8333333 C18.7935706,10.8333333 19.1666667,10.4602373 19.1666667,10 C19.1666667,9.53976271 18.7935706,9.16666667 18.3333333,9.16666667 L15,9.16666667 C14.641308,9.16666667 14.322859,9.39619175 14.2094306,9.73647686 L12.5,14.8647686 Z" id="path-1"></path>
    </defs>
    <g id="Page-1" stroke="none" stroke-width="1" fill="none" fill-rule="evenodd">
        <g id="activity" transform="translate(0.000000, -1.000000)">
            <mask id="mask-2" fill="white">
                <use xlink:href="#path-1"></use>
            </mask>
            <use id="Shape" fill="#000000" fill-rule="nonzero" xlink:href="#path-1"></use>
            <g id="COLOR/-green" mask="url(#mask-2)" fill="#00BCC7" fill-rule="evenodd">
                <rect id="Purple" x="0" y="0" width="20" height="20"></rect>
            </g>
        </g>
    </g>
</svg>