<?xml version="1.0" encoding="UTF-8"?>
<svg width="20px" height="18px" viewBox="0 0 20 18" version="1.1" xmlns="http://www.w3.org/2000/svg" xmlns:xlink="http://www.w3.org/1999/xlink">
    <title>total_trade</title>
    <defs>
        <path d="M9.16666667,2.33333333 L9.16666667,15.6666667 L10.8333333,15.6666667 L10.8333333,2.33333333 L9.16666667,2.33333333 Z M11.6666667,0.666666667 C12.126904,0.666666667 12.5,1.03976271 12.5,1.5 L12.5,16.5 C12.5,16.9602373 12.126904,17.3333333 11.6666667,17.3333333 L8.33333333,17.3333333 C7.87309604,17.3333333 7.5,16.9602373 7.5,16.5 L7.5,1.5 C7.5,1.03976271 7.87309604,0.666666667 8.33333333,0.666666667 L11.6666667,0.666666667 Z M18.3333333,4.83333333 C18.7935706,4.83333333 19.1666667,5.20642938 19.1666667,5.66666667 L19.1666667,16.5 C19.1666667,16.9602373 18.7935706,17.3333333 18.3333333,17.3333333 L15,17.3333333 C14.5397627,17.3333333 14.1666667,16.9602373 14.1666667,16.5 L14.1666667,5.66666667 C14.1666667,5.20642938 14.5397627,4.83333333 15,4.83333333 L18.3333333,4.83333333 Z M5,9 C5.46023729,9 5.83333333,9.37309604 5.83333333,9.83333333 L5.83333333,16.5 C5.83333333,16.9602373 5.46023729,17.3333333 5,17.3333333 L1.66666667,17.3333333 C1.20642938,17.3333333 0.833333333,16.9602373 0.833333333,16.5 L0.833333333,9.83333333 C0.833333333,9.37309604 1.20642938,9 1.66666667,9 L5,9 Z M17.5,6.5 L15.8333333,6.5 L15.8333333,15.6666667 L17.5,15.6666667 L17.5,6.5 Z M4.16666667,10.6666667 L2.5,10.6666667 L2.5,15.6666667 L4.16666667,15.6666667 L4.16666667,10.6666667 Z" id="path-1"></path>
    </defs>
    <g id="Page-1" stroke="none" stroke-width="1" fill="none" fill-rule="evenodd">
        <g id="total_trade">
            <mask id="mask-2" fill="white">
                <use xlink:href="#path-1"></use>
            </mask>
            <use id="Combined-Shape" fill="#00BCC7" fill-rule="nonzero" xlink:href="#path-1"></use>
        </g>
    </g>
</svg>