<?xml version="1.0" encoding="UTF-8"?>
<svg width="20px" height="18px" viewBox="0 0 20 18" version="1.1" xmlns="http://www.w3.org/2000/svg" xmlns:xlink="http://www.w3.org/1999/xlink">
    <title>total_active_trade</title>
    <defs>
        <path d="M12.5,13.8647686 L8.29056942,1.23647686 C8.03732044,0.476729935 6.96267956,0.476729935 6.70943058,1.23647686 L4.39936732,8.16666667 L1.66666667,8.16666667 C1.20642938,8.16666667 0.833333333,8.53976271 0.833333333,9 C0.833333333,9.46023729 1.20642938,9.83333333 1.66666667,9.83333333 L5,9.83333333 C5.35869201,9.83333333 5.67714104,9.60380825 5.79056942,9.26352314 L7.5,4.13523138 L11.7094306,16.7635231 C11.9626796,17.5232701 13.0373204,17.5232701 13.2905694,16.7635231 L15.6006327,9.83333333 L18.3333333,9.83333333 C18.7935706,9.83333333 19.1666667,9.46023729 19.1666667,9 C19.1666667,8.53976271 18.7935706,8.16666667 18.3333333,8.16666667 L15,8.16666667 C14.641308,8.16666667 14.322859,8.39619175 14.2094306,8.73647686 L12.5,13.8647686 Z" id="path-1"></path>
    </defs>
    <g id="Page-1" stroke="none" stroke-width="1" fill="none" fill-rule="evenodd">
        <g id="total_active_trade">
            <mask id="mask-2" fill="white">
                <use xlink:href="#path-1"></use>
            </mask>
            <use id="Shape" fill="#00BCC7" fill-rule="nonzero" xlink:href="#path-1"></use>
        </g>
    </g>
</svg>