<?xml version="1.0" encoding="UTF-8"?>
<svg width="20px" height="12px" viewBox="0 0 20 12" version="1.1" xmlns="http://www.w3.org/2000/svg" xmlns:xlink="http://www.w3.org/1999/xlink">
    <title>total_trade_pair</title>
    <defs>
        <path d="M19.1666667,0.166666667 C19.2150753,0.166666667 19.2634838,0.17085844 19.3113013,0.179241987 C19.3339475,0.183155093 19.3556286,0.187880824 19.3769768,0.193431712 C19.3852313,0.195637415 19.3943454,0.198160213 19.4034228,0.200840696 C19.4280655,0.208100225 19.45128,0.216150534 19.4740035,0.225171534 C19.4859233,0.229891596 19.4983938,0.235174298 19.5107555,0.240774384 C19.5309346,0.249977729 19.5500888,0.259609576 19.5688035,0.269940109 C19.5825053,0.277416112 19.5963726,0.285586174 19.6100442,0.294191777 C19.62567,0.304127709 19.6405837,0.314219043 19.6551428,0.32476972 C19.6903148,0.350186323 19.7240861,0.37890813 19.7559223,0.410744349 L19.6902634,0.351665345 C19.7100374,0.367654913 19.7290653,0.384530755 19.7472864,0.402232461 L19.7559223,0.410744349 C19.7584748,0.413296795 19.7610072,0.41586168 19.7635196,0.418438808 C19.7815038,0.436889328 19.7987125,0.456259105 19.8150013,0.476403312 C19.8243914,0.487936709 19.833418,0.499718929 19.8420877,0.511679555 C19.8524476,0.526082968 19.862539,0.540996657 19.8721497,0.556243686 C19.8810805,0.570294111 19.8892506,0.584161356 19.8969851,0.598204406 C19.9070571,0.616577834 19.9166889,0.635732115 19.9255869,0.655290842 C19.9314924,0.668272902 19.9367751,0.680743336 19.9417404,0.693310114 C19.979248,0.787761163 20,0.891457139 20,1 L20,1 L20,6 C20,6.46023729 19.626904,6.83333333 19.1666667,6.83333333 C18.7064294,6.83333333 18.3333333,6.46023729 18.3333333,6 L18.3333333,6 L18.333,3.01066667 L11.8392557,9.50592232 C11.5409385,9.80423948 11.0727167,9.82909925 10.7460821,9.58050161 L10.6607443,9.50592232 L7.08333333,5.9285113 L1.42258898,11.5892557 C1.09715207,11.9146926 0.569514592,11.9146926 0.244077682,11.5892557 C-0.0813592274,11.2638187 -0.0813592274,10.7361813 0.244077682,10.4107443 L0.244077682,10.4107443 L6.49407768,4.16074435 C6.81951459,3.83530744 7.34715207,3.83530744 7.67258898,4.16074435 L7.67258898,4.16074435 L11.25,7.73815536 L17.155,1.83266667 L14.1666667,1.83333333 C13.7418322,1.83333333 13.3912484,1.51542901 13.3398262,1.10453156 L13.3333333,1 C13.3333333,0.539762708 13.7064294,0.166666667 14.1666667,0.166666667 L14.1666667,0.166666667 Z" id="path-1"></path>
    </defs>
    <g id="Page-1" stroke="none" stroke-width="1" fill="none" fill-rule="evenodd">
        <g id="total_trade_pair">
            <mask id="mask-2" fill="white">
                <use xlink:href="#path-1"></use>
            </mask>
            <use id="Combined-Shape" fill="#00BCC7" fill-rule="nonzero" xlink:href="#path-1"></use>
        </g>
    </g>
</svg>