<?xml version="1.0" encoding="UTF-8"?>
<svg width="36px" height="36px" viewBox="0 0 36 36" version="1.1" xmlns="http://www.w3.org/2000/svg" xmlns:xlink="http://www.w3.org/1999/xlink">
    <title>users</title>
    <g id="Symbols" stroke="none" stroke-width="1" fill="none" fill-rule="evenodd">
        <g id="users" fill-rule="nonzero">
            <g id="1828328" transform="translate(8.571429, 7.000000)">
                <path d="M14.4285714,5 C14.4285714,7.76150015 12.1900716,10 9.42857143,10 C6.66707128,10 4.42857143,7.76150015 4.42857143,5 C4.42857143,2.23849985 6.66707128,0 9.42857143,0 C12.1900716,0 14.4285714,2.23849985 14.4285714,5 Z" id="Path" fill="#CCCDCD"></path>
                <path d="M13.6780831,13 L5.17759487,13 C2.55991908,13 0.428571429,15.1313477 0.428571429,17.7504883 L0.428571429,21.25 C0.428571429,21.6638183 0.764753116,22 1.17857143,22 L17.6785714,22 C18.0923897,22 18.4285714,21.6638183 18.4285714,21.25 L18.4285714,17.7504883 C18.4285714,15.1313477 16.2972238,13 13.6780831,13 Z" id="Path" fill="#878F9D"></path>
            </g>
        </g>
    </g>
</svg>