<?xml version="1.0" encoding="utf-8"?>
<!-- Generator: Adobe Illustrator 24.3.0, SVG Export Plug-In . SVG Version: 6.00 Build 0)  -->
<svg version="1.1" id="Layer_1" xmlns="http://www.w3.org/2000/svg" xmlns:xlink="http://www.w3.org/1999/xlink" x="0px" y="0px"
	 viewBox="0 0 24 24" style="enable-background:new 0 0 24 24;" xml:space="preserve">
<style type="text/css">
	.st0{fill:#00BCC7;}
</style>
<path class="st0" d="M19.4,19.8C18.3,20.6,17,21,15.7,21c-2.8,0-5.1-1.8-6.4-4.5h4.9c0.8,0,1.5-0.7,1.5-1.5c0-0.8-0.7-1.5-1.5-1.5
	H8.4c-0.1-0.5-0.1-1-0.1-1.5s0.1-1,0.1-1.5h7.4c0.8,0,1.5-0.7,1.5-1.5c0-0.8-0.7-1.5-1.5-1.5H9.3C10.6,4.8,13,3,15.7,3
	c1.3,0,2.5,0.4,3.6,1.1c0.7,0.5,1.6,0.3,2.1-0.4c0.5-0.7,0.3-1.6-0.4-2.1C19.5,0.6,17.6,0,15.7,0C11.4,0,7.6,3.1,6,7.5H3.8
	C2.9,7.5,2.3,8.2,2.3,9c0,0.8,0.7,1.5,1.5,1.5h1.6c-0.1,0.5-0.1,1-0.1,1.5c0,0.5,0.1,1,0.1,1.5H3.8c-0.8,0-1.5,0.7-1.5,1.5
	c0,0.8,0.7,1.5,1.5,1.5H6c1.6,4.4,5.3,7.5,9.7,7.5c1.9,0,3.7-0.6,5.3-1.7c0.7-0.5,0.9-1.4,0.4-2.1C21,19.5,20.1,19.4,19.4,19.8z"/>
</svg>
