<?xml version="1.0" encoding="utf-8"?>
<!-- Generator: Adobe Illustrator 24.3.0, SVG Export Plug-In . SVG Version: 6.00 Build 0)  -->
<svg version="1.1" id="Layer_1" xmlns="http://www.w3.org/2000/svg" xmlns:xlink="http://www.w3.org/1999/xlink" x="0px" y="0px"
	 viewBox="0 0 24 24" style="enable-background:new 0 0 24 24;" xml:space="preserve">
<style type="text/css">
	.st0{fill:#505050;}
</style>
<path class="st0" d="M22.3,11.7l0-0.3c0-1,0-1.9-0.2-2.9c-1-5-5.7-8.5-10.8-7.9C7.1,1,3.7,4.1,2.8,8.3c-0.2,1-0.2,2-0.2,2.9
	c-0.5,0.2-1,0.6-1.4,1.1c-0.8,0.9-1.2,2-1.2,3.5c0,2.1,1.5,3.9,3.4,4.3c0.6,0.1,1.2,0.1,1.8,0.2l0.2,0c0.6,0,1.2-0.2,1.6-0.6
	c0.4-0.4,0.6-1,0.6-1.6c0-1.7,0-3.3,0-5c0-1.3-0.9-2.2-2.2-2.2l-0.3,0c0-2.9,1.1-5.1,3.5-6.5c2.6-1.6,5.2-1.5,7.7,0.2
	c2.2,1.4,3.2,3.6,3.2,6.3l-1.2,0c-1.2,0-2.2,0.9-2.2,2.2c0,1.7,0,3.4,0,5.1c0,0.9,0.5,1.7,1.3,2c-0.3,0.4-0.7,0.8-1.2,0.8
	c-0.5,0.1-1,0.1-1.6,0.1l-0.3,0c-0.2-0.6-0.7-0.9-1.3-0.8c-0.7,0-1.2,0.6-1.2,1.3c0,0.2,0,0.4,0,0.6l0,0.2c0,0.9,0.6,1.4,1.4,1.4
	l0.1,0c0.4,0,0.8,0,1.2,0c0.3,0,0.7,0,1,0c2.2,0,4-1.4,4.6-3.5c0.8-0.2,1.5-0.5,2.1-1.1c1-1,1.5-2.2,1.4-3.7
	C23.9,13.7,23.4,12.6,22.3,11.7z M21.3,15.2c0,0.4,0,0.8-0.1,1.1c-0.3,0.8-0.9,1.2-1.7,1.2c-0.2,0-0.4,0-0.6,0l0-4.2c0,0,0,0,0.1,0
	c0.4,0,0.8,0,1.1,0.1C20.8,13.7,21.3,14.4,21.3,15.2z M5.1,17.5c-0.1,0-0.2,0-0.2,0c-0.3,0-0.6,0-0.8-0.1c-0.8-0.2-1.4-0.9-1.4-1.8
	c0-0.8,0.2-1.4,0.6-1.8c0.4-0.3,0.7-0.5,1.2-0.5c0.1,0,0.3,0,0.4,0c0.1,0,0.1,0,0.2,0l0,1C5.1,15.4,5.1,16.4,5.1,17.5z"/>
</svg>
