<svg xmlns="http://www.w3.org/2000/svg" width="18.79" height="21.938" viewBox="0 0 18.79 21.938"><path d="M10.715,21.938l3-9.04h4.971l-7.873,9.04Zm-2.737,0L.105,12.9H5.076l3,9.04ZM6.431,12.9H12.36L9.4,21.834Zm7.861-1.285,2.25-4.5,2.249,4.5Zm-7.618,0L9.4,7.076l2.722,4.536ZM0,11.612l2.249-4.5,2.25,4.5ZM10.53,6.47h4.9L13.2,10.92Zm-7.164,0H8.26L5.59,10.92Zm8.756-2.727a.643.643,0,0,1,0-.909l.909-.909a.643.643,0,0,1,.909.909l-.909.909a.643.643,0,0,1-.909,0Zm-6.363,0L4.85,2.834a.643.643,0,0,1,.909-.909l.909.909a.643.643,0,1,1-.909.909ZM8.753,1.971V.643a.643.643,0,0,1,1.285,0V1.971a.643.643,0,0,1-1.285,0Z" fill="#fff"/></svg>