<svg xmlns="http://www.w3.org/2000/svg" width="19.834" height="19.649" viewBox="0 0 19.834 19.649"><path d="M11.03,18.644v-6.81a1.02,1.02,0,0,1,1.01-1.01h6.79a1.011,1.011,0,0,1,.98,1.22,10.055,10.055,0,0,1-7.56,7.58,1.017,1.017,0,0,1-.22.024A1,1,0,0,1,11.03,18.644Zm-3.24.98a10.059,10.059,0,0,1,0-19.6A1,1,0,0,1,9,1v17.64a1,1,0,0,1-.993,1A.985.985,0,0,1,7.79,19.625Zm4.24-10.81a1,1,0,0,1-1-1V1A1,1,0,0,1,12.25.024a10.044,10.044,0,0,1,7.55,7.57,1,1,0,0,1-.98,1.22Z" transform="translate(0 0)" fill="#fff"/></svg>