<svg xmlns="http://www.w3.org/2000/svg" width="20" height="19.005" viewBox="0 0 20 19.005"><path d="M4.36,18.98A3.139,3.139,0,0,1,2.03,16.66c-.3-2.03,1.309-3.48,2.62-4.79.879-1.02,1.61-1.89,2.48-2.91A4.31,4.31,0,0,1,8.88,7.64a1.95,1.95,0,0,1,.329-.09A4.164,4.164,0,0,1,10,7.5a4.976,4.976,0,0,1,.78.041,1.95,1.95,0,0,1,.329.09A4.236,4.236,0,0,1,12.86,8.95c.88,1.021,1.61,1.89,2.479,2.911,1.31,1.31,2.921,2.759,2.61,4.8a3.154,3.154,0,0,1-2.329,2.32c-.731.139-3.06-.44-5.54-.44H9.9c-2.2,0-4.282.465-5.234.465A1.569,1.569,0,0,1,4.36,18.98ZM15,6.5A2.5,2.5,0,1,1,17.5,9,2.5,2.5,0,0,1,15,6.5ZM0,6.5A2.5,2.5,0,1,1,2.5,9,2.5,2.5,0,0,1,0,6.5Zm10.5-4A2.5,2.5,0,1,1,13,5,2.5,2.5,0,0,1,10.5,2.5Zm-6,0A2.5,2.5,0,1,1,7,5,2.5,2.5,0,0,1,4.5,2.5Z" fill="#fff"/></svg>