<svg xmlns="http://www.w3.org/2000/svg" width="22" height="12" viewBox="0 0 22 12"><path d="M0,10A2.006,2.006,0,0,1,2,8a1.69,1.69,0,0,1,.51.07L7.07,3.52A1.756,1.756,0,0,1,7,3a2,2,0,0,1,4,0,1.756,1.756,0,0,1-.07.52L13.48,6.07a1.984,1.984,0,0,1,1.039,0L18.07,2.51A1.69,1.69,0,0,1,18,2a2,2,0,1,1,2,2,1.708,1.708,0,0,1-.509-.069L15.93,7.48A1.756,1.756,0,0,1,16,8a2,2,0,0,1-4,0,1.785,1.785,0,0,1,.07-.52L9.52,4.93a1.963,1.963,0,0,1-1.04,0L3.93,9.49A1.719,1.719,0,0,1,4,10a2,2,0,1,1-4,0Z" fill="#fff"/></svg>