<svg xmlns="http://www.w3.org/2000/svg" width="21.756" height="21.756" viewBox="0 0 21.756 21.756"><path d="M10.878,20.759v-9.88a5.5,5.5,0,0,1,1.26,10.849,1.055,1.055,0,0,1-.241.028A1.008,1.008,0,0,1,10.878,20.759ZM.028,12.138A1.015,1.015,0,0,1,1,10.878h9.88a5.548,5.548,0,0,1-5.5-5.5A5.557,5.557,0,0,1,9.618.028a1.015,1.015,0,0,1,1.26.97v9.88a5.5,5.5,0,0,1,10.849-1.26,1.014,1.014,0,0,1-.969,1.26h-9.88a5.549,5.549,0,0,1-5.5,5.5A5.557,5.557,0,0,1,.028,12.138Z" transform="translate(0 0)" fill="#fff"/></svg>