<?xml version="1.0" encoding="UTF-8"?>
<svg width="20px" height="17px" viewBox="0 0 20 17" version="1.1" xmlns="http://www.w3.org/2000/svg" xmlns:xlink="http://www.w3.org/1999/xlink">
    <title>Group 7</title>
    <defs>
        <polygon id="path-1" points="0 -0.000153635117 18.6454973 -0.000153635117 18.6454973 6.15048373 0 6.15048373"></polygon>
        <polygon id="path-3" points="0.00556515861 0.0694224937 18.6544731 0.0694224937 18.6544731 6.22220179 0.00556515861 6.22220179"></polygon>
    </defs>
    <g id="Page-1" stroke="none" stroke-width="1" fill="none" fill-rule="evenodd">
        <g id="Dashboard_dark_mode-Copy" transform="translate(-1208.000000, -152.000000)">
            <g id="Group-2-Copy-2" transform="translate(1095.000000, 109.000000)">
                <g id="Group-7" transform="translate(113.000000, 43.000000)">
                    <g id="Group-3">
                        <mask id="mask-2" fill="white">
                            <use xlink:href="#path-1"></use>
                        </mask>
                        <g id="Clip-2"></g>
                        <path d="M4.21744731,3.69308861 L4.62021075,3.69308861 C8.82563011,3.69308861 13.0310495,3.69193635 17.2364688,3.6965454 C17.4459419,3.69677586 17.6664043,3.71329163 17.8624796,3.78081427 C18.3836409,3.96018326 18.7083505,4.53293498 18.6352645,5.08625185 C18.5624043,5.63849328 18.0995763,6.09148642 17.5522968,6.14287737 C17.465286,6.15109684 17.3771462,6.1474096 17.2895333,6.1474096 C11.9952,6.14756324 6.70086667,6.14595007 1.40645806,6.15048373 C1.00083441,6.15086639 0.636533333,6.07366475 0.345167742,5.76654815 C-0.0943268817,5.30326145 -0.127972043,4.57403237 0.324167742,4.10237257 C1.5408129,2.83319287 2.77123226,1.57737942 4.01309247,0.333779973 C4.48359785,-0.13741893 5.21363011,-0.0969360768 5.67156559,0.373110562 C6.12716774,0.840775857 6.15388817,1.57538217 5.69512473,2.06670727 C5.20384516,2.59283073 4.68050108,3.08768944 4.17115699,3.59622167 C4.1865871,3.62848505 4.2020172,3.66082524 4.21744731,3.69308861" id="Fill-1" fill="#7B828F" mask="url(#mask-2)"></path>
                    </g>
                    <g id="Group-6" transform="translate(0.888889, 9.777778)">
                        <mask id="mask-4" fill="white">
                            <use xlink:href="#path-3"></use>
                        </mask>
                        <g id="Clip-5"></g>
                        <path d="M14.5497409,2.52668313 C12.7266548,2.52668313 11.025128,2.52668313 9.32352581,2.52660631 C6.69498817,2.52660631 4.06637527,2.52714403 1.4376871,2.52537723 C1.27578387,2.52522359 1.10906344,2.52944856 0.952654839,2.4941893 C0.347267742,2.3576845 -0.0563236559,1.77402469 0.0133752688,1.15825514 C0.0832247312,0.540411523 0.583837634,0.0788916324 1.2243,0.075127572 C2.72628925,0.0664471879 4.22842903,0.0702112483 5.73049355,0.0703648834 C9.54820323,0.0705953361 13.3659129,0.0715171468 17.1836978,0.0723621399 C17.2838054,0.0723621399 17.3842892,0.0684444444 17.4839452,0.0756652949 C17.9767301,0.111308642 18.3408054,0.355281207 18.5394398,0.815034294 C18.739429,1.27809053 18.6826011,1.73953361 18.3380204,2.09842524 C17.1115151,3.37582442 15.8749237,4.6436214 14.6219237,5.89375034 C14.1481065,6.36640878 13.4189774,6.31317421 12.9668376,5.83529218 C12.516429,5.35917695 12.5031817,4.63086968 12.9633753,4.14038957 C13.4540527,3.61733882 13.9676871,3.11671879 14.5497409,2.52668313" id="Fill-4" fill="#7B828F" mask="url(#mask-4)"></path>
                    </g>
                </g>
            </g>
        </g>
    </g>
</svg>