<?xml version="1.0" encoding="UTF-8"?>
<svg width="51px" height="50px" viewBox="0 0 51 50" version="1.1" xmlns="http://www.w3.org/2000/svg" xmlns:xlink="http://www.w3.org/1999/xlink">
    <title>Group 38</title>
    <g id="Page-1" stroke="none" stroke-width="1" fill="none" fill-rule="evenodd">
        <g id="Dashboard_dark_mode-Copy" transform="translate(-547.000000, -386.000000)">
            <g id="Group-38" transform="translate(547.500000, 386.000000)">
                <circle id="Oval" fill="#504D58" cx="25" cy="25" r="25"></circle>
                <path d="M25.4533046,23.5381769 C25.7453192,23.5333511 25.9391518,23.7338847 25.9478879,24.0659565 C25.9554328,24.3526104 25.9494267,24.6396613 25.9494267,24.944532 L27.0934114,24.9447801 L27.0934114,24.9447801 C27.5050016,24.9462196 27.7077193,25.1429808 27.7079178,25.5459839 C27.7089106,27.2963842 27.7090595,29.0467348 27.7077689,30.7970855 C27.7074711,31.1906575 27.5089726,31.3844405 27.1112311,31.3859792 C26.7337414,31.3874187 26.3562518,31.3862771 25.9458032,31.3862771 C25.9458032,31.7230643 25.9590066,32.0356287 25.9423782,32.3466047 C25.9235658,32.6973896 25.6254458,32.8858118 25.293374,32.7762132 C25.0763113,32.704587 24.9807104,32.5455996 24.9792709,32.3247148 C24.9772854,32.0214325 24.9787745,31.7181503 24.9787745,31.3864756 C24.5377991,31.3864756 24.1418942,31.3890567 23.7460388,31.3856814 C23.3978351,31.3827528 23.2174044,31.2192981 23.216511,30.8747178 C23.2117458,29.074879 23.2118451,27.274941 23.2169081,25.4751022 C23.2179008,25.1336491 23.4205192,24.9492475 23.7684748,24.945624 C24.1624935,24.9414545 24.5566116,24.9446312 24.97803,24.9446312 C24.97803,24.6404555 24.9755481,24.362091 24.9786753,24.0838258 C24.9824477,23.7476342 25.1626797,23.5431793 25.4533046,23.5381769 Z M18.2389839,18.4069924 C18.5277721,18.3991001 18.7297948,18.6384498 18.7333687,18.995489 C18.7358009,19.2430785 18.7353542,19.4907177 18.7369922,19.7383568 C18.7371411,19.7543896 18.7443385,19.7703231 18.7583361,19.827902 L19.7990758,19.8279517 L19.7990758,19.8279517 C20.3524791,19.8282991 20.4822799,19.9578021 20.4823792,20.5128931 L20.4822303,27.1003229 L20.4822303,27.1003229 C20.482131,27.5706834 20.3295964,27.7235654 19.8627601,27.7253027 L18.8229636,27.7292737 L18.8229636,27.7292737 C18.8074768,27.729373 18.7920397,27.7374638 18.7331205,27.7540426 C18.7331205,28.0418877 18.7419063,28.3431845 18.7310358,28.6437864 C18.7159461,29.0615316 18.3055968,29.2981017 17.9886643,29.056419 C17.8696844,28.9656825 17.8025254,28.7795436 17.7602843,28.623733 C17.7227587,28.485345 17.752392,28.3286905 17.752392,28.1801269 L17.752392,27.7256502 C17.3310233,27.7256502 16.944599,27.727586 16.5581747,27.7251042 C16.1579513,27.7225727 16.0017436,27.571279 16.0014457,27.1720484 C15.9994603,24.9184278 15.9996588,22.664857 16.0011976,20.4112364 C16.0014954,20.0130978 16.1935411,19.8292919 16.5988274,19.827902 L17.752392,19.8276042 L17.752392,19.8276042 L17.7526402,19.0113729 L17.7526402,19.0113729 C17.7542783,18.6655517 17.9570455,18.4146861 18.2389839,18.4069924 Z M31.6922576,17.0002243 C31.9943982,16.9922327 32.187387,17.198276 32.1936412,17.5454871 C32.1985553,17.8172994 32.194634,18.0892607 32.194634,18.4051012 L32.4913641,18.4051012 L32.4913641,18.4051012 C32.7966319,18.4052005 33.1020485,18.4002368 33.4071674,18.4066896 C33.7367573,18.4136884 33.9506929,18.6244969 33.9511396,18.9521013 C33.9538696,20.9079989 33.9540186,22.8638469 33.9507425,24.8197445 C33.9502461,25.1459094 33.7516484,25.3325943 33.4179882,25.3360689 C33.0232746,25.3402384 32.6285609,25.3370616 32.1948325,25.3370616 C32.1948325,25.6337918 32.1971158,25.8972155 32.1942865,26.1605896 C32.1905141,26.506113 31.976231,26.7598079 31.6984125,26.7532558 C31.4265009,26.7468526 31.225322,26.5011493 31.2229891,26.1687301 L31.2226416,25.3372105 L31.2226416,25.3372105 L30.1841356,25.3371609 L30.1841356,25.3371609 C29.5855626,25.3370616 29.4587897,25.2096433 29.4588889,24.6106236 C29.4592364,22.8775467 29.4706033,21.1444201 29.4546698,19.411492 C29.4461322,18.4800531 29.5398966,18.36971 30.4780365,18.4038106 C30.7154008,18.4124475 30.9534103,18.4051012 31.2227409,18.4051012 C31.2227409,18.1059884 31.2207554,17.8281203 31.2231876,17.5503019 C31.2261658,17.2121248 31.4020795,17.007918 31.6922576,17.0002243 Z" id="Fill-9" fill="#FFFFFF"></path>
            </g>
        </g>
    </g>
</svg>