<?xml version="1.0" encoding="UTF-8"?>
<svg width="50px" height="50px" viewBox="0 0 50 50" version="1.1" xmlns="http://www.w3.org/2000/svg" xmlns:xlink="http://www.w3.org/1999/xlink">
    <title>2nd</title>
    <defs>
        <polygon id="path-1" points="0 0.053165246 29.0438189 0.053165246 29.0438189 17.0559101 0 17.0559101"></polygon>
    </defs>
    <g id="Page-1" stroke="none" stroke-width="1" fill="none" fill-rule="evenodd">
        <g id="Dashboard_dark_mode-Copy" transform="translate(-1473.000000, -391.000000)">
            <g id="Group-10" transform="translate(1473.000000, 391.000000)">
                <g id="2nd">
                    <circle id="Oval" fill="#FDA35C" cx="25" cy="25" r="25"></circle>
                    <g id="Group-18" transform="translate(10.465116, 10.465116)">
                        <polygon id="Fill-1" fill="#F2B385" points="17.1842282 23.9585495 11.8595386 23.9585495 12.7671292 22.0222251 13.5537501 20.2070439 15.4900167 20.2070439 16.2766376 22.0222251"></polygon>
                        <g id="Group-17" transform="translate(0.000000, 0.031907)">
                            <path d="M20.5726281,23.9266423 L8.47109237,23.9266423 C7.80544103,23.9266423 7.26093301,24.4711503 7.26093301,25.1367437 L7.26093301,29.0697327 L21.7223316,29.0697327 L21.7223316,25.1367437 C21.7827875,24.4711503 21.2382215,23.9266423 20.5726281,23.9266423" id="Fill-2" fill="#FFEAD9"></path>
                            <path d="M16.2766434,21.9903468 C15.7925913,22.2324018 15.3085391,22.4743989 14.824429,22.6559402 L14.5219181,22.716454 L14.2193493,22.5954264 C13.7352972,22.4138852 13.251245,22.171888 12.7671349,21.929833 L13.5537559,20.1145939 L15.4295087,20.1145939 L16.2766434,21.9903468 Z" id="Fill-4" fill="#F2B385"></path>
                            <g id="Group-8" transform="translate(0.000000, 3.300750)">
                                <mask id="mask-2" fill="white">
                                    <use xlink:href="#path-1"></use>
                                </mask>
                                <g id="Clip-7"></g>
                                <path d="M26.6234423,2.53399773 C26.6234423,5.43836862 25.5948242,8.10074238 23.8401568,10.2184923 C21.6013215,12.8808082 18.2733543,14.6355914 14.5219066,14.6355914 C10.7704589,14.6355914 7.44249166,12.9413798 5.20371421,10.2184923 C3.50950269,8.16119823 2.42037084,5.43836862 2.42037084,2.53399773 L2.42037084,2.47348397 L26.5629285,2.47348397 L26.5629285,2.53399773 L26.6234423,2.53399773 Z M-5.79079033e-06,0.053165246 L-5.79079033e-06,2.53399773 C-5.79079033e-06,8.58479454 3.75149981,13.7884566 9.01567567,15.9667782 C10.7098872,16.6928854 12.58564,17.0559101 14.5219066,17.0559101 C16.4581731,17.0559101 18.3339838,16.6928854 20.0281375,15.9667782 C25.2923133,13.7885145 29.0438189,8.58479454 29.0438189,2.53405564 L29.0438189,0.053165246 L-5.79079033e-06,0.053165246 Z" id="Fill-6" fill="#F9B785" mask="url(#mask-2)"></path>
                            </g>
                            <path d="M23.9611496,0.0260006486 L5.08265195,0.0260006486 C4.65911355,0.0260006486 4.35654475,0.389025294 4.35654475,0.752107848 C4.35654475,1.17564625 4.65905564,1.53872881 5.08265195,1.53872881 L23.9611496,1.53872881 C24.3846301,1.53872881 24.6872568,1.17570416 24.6872568,0.812621607 C24.6872568,0.389025294 24.3846301,0.0260006486 23.9611496,0.0260006486" id="Fill-9" fill="#FEDABD"></path>
                            <path d="M23.9611496,1.53867669 L23.9611496,8.07352566 C23.9611496,14.1243225 20.209644,19.6305534 14.5219297,21.8088171 C8.83421546,19.5700396 5.08270986,14.1243225 5.08270986,8.01301191 L5.08270986,1.53867669 L23.9611496,1.53867669 Z" id="Fill-11" fill="#FFEAD9"></path>
                            <polygon id="Fill-13" fill="#FDA35C" points="14.5219066 4.26156421 15.7925218 8.13403942 19.8465962 8.13403942 16.5791427 10.5543581 17.7893021 14.4268913 14.5219066 12.0065725 11.2544531 14.4268913 12.4646125 10.5543581 9.19715904 8.13403942 13.2512334 8.13403942"></polygon>
                            <polygon id="Fill-15" fill="#F9B785" points="5.08263458 2.44626147 23.9005605 2.44626147 23.9005605 1.5386709 5.08263458 1.5386709"></polygon>
                        </g>
                    </g>
                </g>
            </g>
        </g>
    </g>
</svg>