<svg xmlns="http://www.w3.org/2000/svg" width="18" height="18" viewBox="0 0 18 18"><g transform="translate(-9 -9)"><path d="M16.687,0H1.313A1.314,1.314,0,0,0,0,1.313V3.188A1.313,1.313,0,0,0,1.313,4.5H16.688A1.313,1.313,0,0,0,18,3.187V1.313A1.314,1.314,0,0,0,16.687,0" transform="translate(9 9)" fill="#cccdcd"/><path d="M1.313,12H3.188A1.313,1.313,0,0,0,4.5,10.688V1.313A1.314,1.314,0,0,0,3.187,0H1.313A1.314,1.314,0,0,0,0,1.313v9.375A1.314,1.314,0,0,0,1.313,12" transform="translate(9 15)" fill="#878f9d"/><path d="M10.688,0H1.313A1.314,1.314,0,0,0,0,1.313v9.375A1.314,1.314,0,0,0,1.313,12h9.375A1.314,1.314,0,0,0,12,10.688V1.313A1.314,1.314,0,0,0,10.688,0" transform="translate(15 15)" fill="#cccdcd"/></g></svg>