<svg xmlns="http://www.w3.org/2000/svg" width="24.69" height="24.69" viewBox="0 0 24.69 24.69"><g transform="translate(-5.655 -5.655)"><path d="M7.853,15.709a7.855,7.855,0,1,1,7.857-7.852,7.859,7.859,0,0,1-7.857,7.852" transform="translate(10.145 10.145)" fill="#878f9d"/><path d="M3.38,2.117a1.167,1.167,0,0,1-.651,1.137,1.035,1.035,0,0,1-1.206-.163C1.091,2.7.679,2.285.285,1.856A1.09,1.09,0,0,1,.334.337,1.09,1.09,0,0,1,1.852.282a16.171,16.171,0,0,1,1.232,1.24,2.171,2.171,0,0,1,.295.595" transform="translate(9.015 9.015)" fill="#cccdcd"/><path d="M0,2.1a2.854,2.854,0,0,1,.346-.63c.342-.4.728-.755,1.106-1.119A1.108,1.108,0,0,1,3.05.333a1.108,1.108,0,0,1-.019,1.6c-.373.386-.747.771-1.141,1.135a1.053,1.053,0,0,1-1.234.186A1.189,1.189,0,0,1,0,2.1" transform="translate(23.601 9.018)" fill="#cccdcd"/><path d="M0,2.087A2.944,2.944,0,0,1,.352,1.46C.695,1.064,1.08.7,1.459.341a1.108,1.108,0,0,1,1.6,0,1.106,1.106,0,0,1-.01,1.573C2.676,2.3,2.3,2.682,1.908,3.05a1.06,1.06,0,0,1-1.231.212A1.184,1.184,0,0,1,0,2.087" transform="translate(9.006 23.614)" fill="#cccdcd"/><path d="M3.38,2.115a1.166,1.166,0,0,1-.648,1.139,1.036,1.036,0,0,1-1.207-.16C1.093,2.7.681,2.287.286,1.859A1.093,1.093,0,0,1,.331.339,1.092,1.092,0,0,1,1.85.28,16.23,16.23,0,0,1,3.083,1.52a2.192,2.192,0,0,1,.3.594" transform="translate(23.611 23.61)" fill="#cccdcd"/><path d="M0,1.683c0-.211-.011-.422,0-.631a1.114,1.114,0,0,1,2.225-.009,12.605,12.605,0,0,1,0,1.263,1.114,1.114,0,0,1-2.225.009c-.015-.209,0-.421,0-.631" transform="translate(16.88 5.655)" fill="#cccdcd"/><path d="M1.669,2.241c-.187,0-.374.006-.561,0A1.115,1.115,0,0,1,1.091.01C1.477,0,1.863,0,2.249.009A1.116,1.116,0,1,1,2.231,2.24c-.187.006-.374,0-.561,0" transform="translate(5.655 16.876)" fill="#cccdcd"/><path d="M1.669,0c.2,0,.4-.007.6,0a1.115,1.115,0,0,1,.02,2.229c-.409.017-.819.018-1.228,0A1.115,1.115,0,0,1,1.073.005c.2-.011.4,0,.6,0" transform="translate(26.988 16.88)" fill="#cccdcd"/><path d="M0,1.69c0-.211-.011-.422,0-.631a1.115,1.115,0,0,1,2.227.012c.017.409.018.819,0,1.228A1.115,1.115,0,0,1,.006,2.286c-.01-.2,0-.4,0-.6" transform="translate(16.88 26.988)" fill="#cccdcd"/></g></svg>