<svg xmlns="http://www.w3.org/2000/svg" width="19.645" height="18" viewBox="0 0 19.645 18"><g transform="translate(-8.22 -9)"><path d="M14.47,9.633A3.136,3.136,0,0,1,9.823,9.57a3.136,3.136,0,0,1-4.648.063A2.958,2.958,0,0,1,0,7.664V2.454A2.461,2.461,0,0,1,2.454,0H17.177a2.478,2.478,0,0,1,2.468,2.454v5.21A2.958,2.958,0,0,1,14.47,9.633Z" transform="translate(8.22 9)" fill="#878f9d"/><path d="M0,0V2.811A2.461,2.461,0,0,0,2.454,5.265h14.73a2.461,2.461,0,0,0,2.454-2.454V0Z" transform="translate(8.22 21.735)" fill="#cccdcd"/></g></svg>