<svg xmlns="http://www.w3.org/2000/svg" width="20.728" height="15.75" viewBox="0 0 20.728 15.75"><g transform="translate(-0.035)"><path d="M5.344,2.672A2.672,2.672,0,1,1,2.672,0,2.671,2.671,0,0,1,5.344,2.672Z" transform="translate(13.289 4.535)" fill="#cccdcd"/><path d="M7.08,0H2.538A2.542,2.542,0,0,0,0,2.538v1.87a.405.405,0,0,0,.4.4h8.81a.405.405,0,0,0,.4-.4V2.538A2.531,2.531,0,0,0,7.08,0Z" transform="translate(11.152 10.941)" fill="#cccdcd"/><path d="M7.5,3.748A3.748,3.748,0,1,1,3.748,0,3.746,3.746,0,0,1,7.5,3.748Z" transform="translate(3.045)" fill="#878f9d"/><path d="M9.942,0H3.565A3.569,3.569,0,0,0,0,3.565V6.188a.564.564,0,0,0,.563.563H12.938a.564.564,0,0,0,.563-.562V3.565A3.554,3.554,0,0,0,9.942,0Z" transform="translate(0.035 9)" fill="#878f9d"/></g></svg>