<svg xmlns="http://www.w3.org/2000/svg" width="18.001" height="18" viewBox="0 0 18.001 18"><g transform="translate(-9 -9)"><path d="M13.875,8.25H4.126a4.125,4.125,0,0,1,0-8.25h9.751a4.125,4.125,0,1,1,0,8.25Zm-9.75-6A1.875,1.875,0,1,0,6,4.126,1.877,1.877,0,0,0,4.126,2.25Z" transform="translate(9 9)" fill="#cccdcd"/><path d="M13.875,8.249H4.126A4.125,4.125,0,0,1,4.124,0h9.751a4.125,4.125,0,1,1,0,8.249Zm0-6A1.875,1.875,0,1,0,15.75,4.124,1.877,1.877,0,0,0,13.874,2.249Z" transform="translate(9 18.75)" fill="#878f9d"/></g></svg>